<svg width="269" height="174" viewBox="0 0 269 174" fill="none" xmlns="http://www.w3.org/2000/svg">
<path d="M173.275 40.0733C173.275 40.0733 176.244 24.7884 177.783 16.9961H226.167L248.93 169.346C231.072 173.661 212.019 172.343 204.724 171.144V58.3553L200.766 171.144C186.514 175.22 165.651 171.643 157 169.346C162.425 127.52 173.275 40.0733 173.275 40.0733Z" stroke="#B51F2A" stroke-opacity="0.4" stroke-width="0.5"/>
<path d="M178.553 13L177.453 16.9961H226.717L225.617 13H178.553Z" stroke="#B51F2A" stroke-opacity="0.4" stroke-width="0.5"/>
<path d="M224.991 6.17068C225.617 6.29212 226.105 6.42007 226.444 6.55306L226.297 6.92534C226.365 6.952 226.422 6.97706 226.468 7C226.422 7.02294 226.365 7.048 226.297 7.07466L226.444 7.44694C226.105 7.57993 225.617 7.70788 224.991 7.82932L224.915 7.43664C224.493 7.51854 224.004 7.59794 223.452 7.67418L223.507 8.07041C223.05 8.13358 222.551 8.19435 222.013 8.25245L221.97 7.85476C221.503 7.90521 221.007 7.95369 220.481 8L220.516 8.39845C220.04 8.44045 219.54 8.48065 219.019 8.51892L218.989 8.11999C218.509 8.15522 218.01 8.18882 217.493 8.22068L217.518 8.61992C217.032 8.64985 216.531 8.67824 216.015 8.70501L215.994 8.30555C215.508 8.33073 215.009 8.35447 214.498 8.37671L214.515 8.77633C214.025 8.79762 213.524 8.81753 213.011 8.836L212.997 8.43626C212.507 8.45392 212.006 8.47026 211.497 8.48522L211.508 8.88505C211.017 8.89948 210.516 8.91264 210.007 8.92447L209.997 8.52458C209.505 8.53603 209.004 8.54624 208.495 8.55517L208.502 8.9551C208.007 8.96378 207.506 8.97125 206.997 8.97747L206.992 8.5775C206.498 8.58352 205.999 8.58837 205.492 8.592L205.495 8.99199C205 8.99554 204.499 8.99793 203.992 8.99912L203.991 8.59912C203.742 8.5997 203.49 8.6 203.238 8.6C202.98 8.6 202.724 8.59969 202.47 8.59908L202.469 8.99908C201.953 8.99785 201.442 8.99538 200.937 8.9917L200.94 8.59172C200.424 8.58797 199.914 8.58296 199.411 8.57675L199.406 8.97672C198.887 8.97032 198.376 8.96263 197.871 8.9537L197.878 8.55376C197.36 8.54461 196.85 8.53414 196.347 8.5224L196.338 8.9223C195.819 8.9102 195.309 8.89675 194.808 8.88201L194.819 8.48219C194.299 8.4669 193.789 8.45023 193.288 8.43222L193.274 8.83196C192.752 8.8132 192.242 8.79298 191.742 8.77138L191.759 8.37175C191.238 8.34918 190.728 8.32508 190.232 8.29955L190.211 8.69902C189.686 8.672 189.176 8.64337 188.681 8.6132L188.706 8.21394C188.179 8.18181 187.669 8.14794 187.179 8.11244L187.15 8.51139C186.619 8.47292 186.109 8.43254 185.622 8.39036L185.657 7.99186C185.122 7.94546 184.615 7.89693 184.138 7.84645L184.096 8.24422C183.549 8.18628 183.041 8.12572 182.574 8.0628L182.628 7.66639C182.065 7.5905 181.566 7.51149 181.134 7.43001L181.06 7.82308C180.422 7.70287 179.923 7.57632 179.576 7.44485L179.717 7.07077C179.651 7.04569 179.595 7.02196 179.549 7C179.595 6.97804 179.651 6.95431 179.717 6.92923L179.576 6.55514C179.923 6.42368 180.422 6.29713 181.06 6.17692L181.134 6.56999C181.566 6.4885 182.065 6.4095 182.628 6.33361L182.574 5.9372C183.041 5.87428 183.549 5.81372 184.096 5.75578L184.138 6.15355C184.615 6.10307 185.122 6.05454 185.657 6.00814L185.622 5.60964C186.109 5.56746 186.619 5.52708 187.15 5.48861L187.179 5.88756C187.669 5.85206 188.179 5.81819 188.706 5.78606L188.681 5.3868C189.176 5.35663 189.686 5.328 190.211 5.30098L190.232 5.70045C190.728 5.67492 191.238 5.65082 191.759 5.62825L191.742 5.22862C192.242 5.20702 192.752 5.1868 193.274 5.16804L193.288 5.56778C193.789 5.54977 194.299 5.5331 194.819 5.51781L194.808 5.11799C195.309 5.10325 195.819 5.0898 196.338 5.0777L196.347 5.4776C196.85 5.46586 197.36 5.45539 197.878 5.44624L197.871 5.0463C198.376 5.03737 198.887 5.02968 199.406 5.02328L199.411 5.42325C199.914 5.41704 200.424 5.41203 200.94 5.40828L200.937 5.00829C201.442 5.00462 201.953 5.00215 202.469 5.00092L202.47 5.40092C202.724 5.40031 202.98 5.4 203.238 5.4C203.49 5.4 203.742 5.4003 203.991 5.40088L203.992 5.00088C204.499 5.00207 205 5.00446 205.495 5.00801L205.492 5.408C205.999 5.41163 206.498 5.41648 206.992 5.4225L206.997 5.02253C207.506 5.02875 208.007 5.03622 208.502 5.0449L208.495 5.44484C209.004 5.45376 209.505 5.46397 209.997 5.47542L210.007 5.07553C210.516 5.08736 211.017 5.10052 211.508 5.11495L211.497 5.51478C212.006 5.52974 212.507 5.54608 212.997 5.56374L213.011 5.164C213.524 5.18247 214.025 5.20238 214.515 5.22367L214.498 5.62329C215.009 5.64553 215.508 5.66927 215.994 5.69445L216.015 5.29499C216.531 5.32176 217.032 5.35015 217.518 5.38008L217.493 5.77932C218.01 5.81118 218.509 5.84478 218.989 5.88001L219.019 5.48108C219.54 5.51935 220.04 5.55955 220.516 5.60155L220.481 6C221.007 6.04631 221.503 6.09479 221.97 6.14524L222.013 5.74755C222.551 5.80565 223.05 5.86642 223.507 5.92959L223.452 6.32583C224.004 6.40206 224.493 6.48146 224.915 6.56336L224.991 6.17068ZM226.631 7.10516C226.631 7.10516 226.63 7.10426 226.629 7.10244C226.631 7.10425 226.631 7.10515 226.631 7.10516ZM226.631 6.89484C226.631 6.89485 226.631 6.89575 226.629 6.89756C226.63 6.89574 226.631 6.89484 226.631 6.89484ZM179.366 6.88757C179.366 6.88757 179.367 6.88867 179.369 6.89091C179.366 6.88869 179.365 6.88758 179.366 6.88757ZM179.366 7.11243C179.365 7.11242 179.366 7.11131 179.369 7.10909C179.367 7.11133 179.366 7.11243 179.366 7.11243Z" stroke="#757575" stroke-opacity="0.32" stroke-width="0.8" stroke-dasharray="1.6 1.6"/>
<path d="M1.08 32V25.4H3.43C4.21 25.4 4.78 25.5633 5.14 25.89C5.5 26.2167 5.68 26.66 5.68 27.22C5.68 27.5533 5.58333 27.8567 5.39 28.13C5.19667 28.3967 4.92333 28.5667 4.57 28.64V28.65C4.96333 28.7233 5.27333 28.9033 5.5 29.19C5.73333 29.47 5.85 29.79 5.85 30.15C5.85 30.71 5.64 31.16 5.22 31.5C4.8 31.8333 4.2 32 3.42 32H1.08ZM1.88 31.25H3.61C4.08333 31.25 4.43333 31.1533 4.66 30.96C4.89333 30.7667 5.01 30.4967 5.01 30.15C5.01 29.7967 4.89333 29.5267 4.66 29.34C4.43333 29.1467 4.08333 29.05 3.61 29.05H1.88V31.25ZM1.88 28.3H3.44C4.37333 28.3 4.84 27.94 4.84 27.22C4.84 26.5067 4.37333 26.15 3.44 26.15H1.88V28.3ZM9.2732 32.1C8.9532 32.1 8.64987 32.04 8.3632 31.92C8.0832 31.8 7.8532 31.6067 7.6732 31.34C7.49987 31.0667 7.4132 30.7133 7.4132 30.28V27H8.2132V30.07C8.2132 30.5767 8.3232 30.9267 8.5432 31.12C8.7632 31.3067 9.0732 31.4 9.4732 31.4C9.65987 31.4 9.8432 31.37 10.0232 31.31C10.2032 31.2433 10.3632 31.1433 10.5032 31.01C10.6499 30.87 10.7632 30.6933 10.8432 30.48C10.9299 30.2667 10.9732 30.0133 10.9732 29.72V27H11.7732V32H11.0732L11.0232 31.24C10.8499 31.54 10.6132 31.76 10.3132 31.9C10.0199 32.0333 9.6732 32.1 9.2732 32.1ZM15.4351 32.1C14.9484 32.1 14.4984 31.9967 14.0851 31.79C13.6784 31.5833 13.3651 31.29 13.1451 30.91L13.8251 30.42C13.9717 30.7267 14.1851 30.9667 14.4651 31.14C14.7517 31.3133 15.0951 31.4 15.4951 31.4C15.8484 31.4 16.1251 31.3333 16.3251 31.2C16.5251 31.06 16.6251 30.88 16.6251 30.66C16.6251 30.52 16.5784 30.3933 16.4851 30.28C16.3984 30.16 16.2284 30.0733 15.9751 30.02L14.7751 29.77C14.2884 29.67 13.9384 29.5033 13.7251 29.27C13.5184 29.0367 13.4151 28.7467 13.4151 28.4C13.4151 28.1267 13.4917 27.8767 13.6451 27.65C13.8051 27.4233 14.0284 27.2433 14.3151 27.11C14.6084 26.97 14.9517 26.9 15.3451 26.9C15.8384 26.9 16.2551 26.9967 16.5951 27.19C16.9351 27.3833 17.1884 27.6567 17.3551 28.01L16.6851 28.45C16.5717 28.1567 16.3884 27.9433 16.1351 27.81C15.8817 27.67 15.6184 27.6 15.3451 27.6C15.1051 27.6 14.8984 27.6333 14.7251 27.7C14.5584 27.7667 14.4284 27.86 14.3351 27.98C14.2484 28.0933 14.2051 28.2233 14.2051 28.37C14.2051 28.5167 14.2551 28.6533 14.3551 28.78C14.4551 28.9 14.6417 28.9867 14.9151 29.04L16.1651 29.3C16.6317 29.3933 16.9584 29.5467 17.1451 29.76C17.3317 29.9733 17.4251 30.2333 17.4251 30.54C17.4251 30.8533 17.3417 31.13 17.1751 31.37C17.0084 31.6033 16.7751 31.7833 16.4751 31.91C16.1751 32.0367 15.8284 32.1 15.4351 32.1ZM20.0885 25.58V30.62C20.0885 30.8667 20.1585 31.05 20.2985 31.17C20.4385 31.29 20.6185 31.35 20.8385 31.35C21.0318 31.35 21.1985 31.3167 21.3385 31.25C21.4785 31.1833 21.6052 31.0933 21.7185 30.98L21.9985 31.65C21.8452 31.79 21.6618 31.9 21.4485 31.98C21.2418 32.06 21.0018 32.1 20.7285 32.1C20.4752 32.1 20.2385 32.0567 20.0185 31.97C19.7985 31.8767 19.6218 31.7333 19.4885 31.54C19.3618 31.34 19.2952 31.08 19.2885 30.76V25.8L20.0885 25.58ZM21.9085 27V27.69H18.2885V27H21.9085Z" fill="#B51F2A"/>
<path d="M3.2 3.3C3.78 3.3 4.28 3.42 4.7 3.66C5.12 3.89333 5.47 4.24 5.75 4.7L5.08 5.22C4.83333 4.79333 4.55333 4.49333 4.24 4.32C3.93333 4.14 3.56 4.05 3.12 4.05C2.76667 4.05 2.47333 4.1 2.24 4.2C2.01333 4.3 1.84667 4.43333 1.74 4.6C1.63333 4.76 1.58 4.94333 1.58 5.15C1.58 5.38333 1.65333 5.59 1.8 5.77C1.94667 5.94333 2.24 6.08 2.68 6.18L4.11 6.5C4.74333 6.64 5.18333 6.85333 5.43 7.14C5.68333 7.42 5.81 7.77 5.81 8.19C5.81 8.56333 5.70333 8.89667 5.49 9.19C5.28333 9.47667 4.99 9.7 4.61 9.86C4.23 10.02 3.78333 10.1 3.27 10.1C2.79 10.1 2.36667 10.0367 2 9.91C1.64 9.77667 1.33 9.6 1.07 9.38C0.81 9.16 0.596667 8.91333 0.43 8.64L1.13 8.07C1.25667 8.32333 1.42 8.54667 1.62 8.74C1.82 8.93333 2.06 9.08333 2.34 9.19C2.62667 9.29667 2.95333 9.35 3.32 9.35C3.66 9.35 3.95333 9.31 4.2 9.23C4.45333 9.14333 4.64667 9.02 4.78 8.86C4.91333 8.69333 4.98 8.49333 4.98 8.26C4.98 8.04667 4.91 7.85667 4.77 7.69C4.63 7.51667 4.36667 7.38667 3.98 7.3L2.43 6.95C2.02333 6.85667 1.69333 6.73 1.44 6.57C1.19333 6.40333 1.01333 6.21 0.9 5.99C0.793333 5.76333 0.74 5.52 0.74 5.26C0.74 4.90667 0.836667 4.58333 1.03 4.29C1.23 3.99 1.51333 3.75 1.88 3.57C2.25333 3.39 2.69333 3.3 3.2 3.3ZM7.33625 10V2.7H8.13625V5.75C8.30958 5.45 8.53958 5.23333 8.82625 5.1C9.11292 4.96667 9.42625 4.9 9.76625 4.9C10.1263 4.9 10.4529 4.97 10.7463 5.11C11.0396 5.24333 11.2729 5.45 11.4463 5.73C11.6263 6.01 11.7163 6.36667 11.7163 6.8V10H10.9163V7.08C10.9163 6.52667 10.7963 6.14333 10.5563 5.93C10.3229 5.71 10.0329 5.6 9.68625 5.6C9.44625 5.6 9.20625 5.65667 8.96625 5.77C8.72625 5.88333 8.52625 6.07 8.36625 6.33C8.21292 6.58333 8.13625 6.92333 8.13625 7.35V10H7.33625ZM15.5977 4.9C16.071 4.9 16.4877 5.00333 16.8477 5.21C17.2143 5.41667 17.501 5.71667 17.7077 6.11C17.9143 6.49667 18.0177 6.96 18.0177 7.5C18.0177 8.04 17.9143 8.50667 17.7077 8.9C17.501 9.28667 17.2143 9.58333 16.8477 9.79C16.4877 9.99667 16.071 10.1 15.5977 10.1C15.131 10.1 14.7143 9.99667 14.3477 9.79C13.981 9.58333 13.6943 9.28667 13.4877 8.9C13.281 8.50667 13.1777 8.04 13.1777 7.5C13.1777 6.96 13.281 6.49667 13.4877 6.11C13.6943 5.71667 13.981 5.41667 14.3477 5.21C14.7143 5.00333 15.131 4.9 15.5977 4.9ZM15.5977 5.59C15.2577 5.59 14.9677 5.66667 14.7277 5.82C14.4877 5.97333 14.301 6.19333 14.1677 6.48C14.041 6.76 13.9777 7.1 13.9777 7.5C13.9777 7.89333 14.041 8.23333 14.1677 8.52C14.301 8.80667 14.4877 9.02667 14.7277 9.18C14.9677 9.33333 15.2577 9.41 15.5977 9.41C15.9377 9.41 16.2277 9.33333 16.4677 9.18C16.7077 9.02667 16.891 8.80667 17.0177 8.52C17.151 8.23333 17.2177 7.89333 17.2177 7.5C17.2177 7.1 17.151 6.76 17.0177 6.48C16.891 6.19333 16.7077 5.97333 16.4677 5.82C16.2277 5.66667 15.9377 5.59 15.5977 5.59ZM21.3338 10.1C21.0138 10.1 20.7104 10.04 20.4238 9.92C20.1438 9.8 19.9138 9.60667 19.7338 9.34C19.5604 9.06667 19.4738 8.71333 19.4738 8.28V5H20.2738V8.07C20.2738 8.57667 20.3838 8.92667 20.6038 9.12C20.8238 9.30667 21.1338 9.4 21.5337 9.4C21.7204 9.4 21.9038 9.37 22.0838 9.31C22.2638 9.24333 22.4238 9.14333 22.5638 9.01C22.7104 8.87 22.8238 8.69333 22.9038 8.48C22.9904 8.26667 23.0338 8.01333 23.0338 7.72V5H23.8338V10H23.1338L23.0838 9.24C22.9104 9.54 22.6738 9.76 22.3738 9.9C22.0804 10.0333 21.7338 10.1 21.3338 10.1ZM26.4556 2.7V8.73C26.4556 8.98333 26.5023 9.16 26.5956 9.26C26.689 9.35333 26.839 9.4 27.0456 9.4C27.179 9.4 27.289 9.39 27.3756 9.37C27.4623 9.35 27.579 9.31333 27.7256 9.26L27.5956 9.96C27.489 10.0067 27.3723 10.04 27.2456 10.06C27.119 10.0867 26.989 10.1 26.8556 10.1C26.449 10.1 26.1456 9.99 25.9456 9.77C25.7523 9.55 25.6556 9.21333 25.6556 8.76V2.7H26.4556ZM30.7023 10.1C30.2889 10.1 29.9089 9.99667 29.5623 9.79C29.2156 9.58333 28.9389 9.28667 28.7323 8.9C28.5256 8.50667 28.4223 8.04 28.4223 7.5C28.4223 6.94667 28.5323 6.47667 28.7523 6.09C28.9723 5.70333 29.2623 5.41 29.6223 5.21C29.9823 5.00333 30.3689 4.9 30.7823 4.9C31.1956 4.9 31.5523 5.00667 31.8523 5.22C32.1589 5.43333 32.3623 5.71667 32.4623 6.07L32.3623 6.14V2.7H33.1623V10H32.4623L32.3923 8.79L32.5023 8.73C32.4556 9.02333 32.3423 9.27333 32.1623 9.48C31.9889 9.68 31.7723 9.83333 31.5123 9.94C31.2589 10.0467 30.9889 10.1 30.7023 10.1ZM30.7823 9.4C31.1023 9.4 31.3789 9.32 31.6123 9.16C31.8523 9 32.0356 8.77333 32.1623 8.48C32.2956 8.18 32.3623 7.83 32.3623 7.43C32.3623 7.05 32.2956 6.72333 32.1623 6.45C32.0356 6.17667 31.8556 5.96667 31.6223 5.82C31.3956 5.67333 31.1289 5.6 30.8223 5.6C30.3156 5.6 29.9223 5.77333 29.6423 6.12C29.3623 6.46667 29.2223 6.92667 29.2223 7.5C29.2223 8.07333 29.3589 8.53333 29.6323 8.88C29.9056 9.22667 30.2889 9.4 30.7823 9.4ZM37.1118 10.1C36.6385 10.1 36.2151 9.99667 35.8418 9.79C35.4751 9.58333 35.1885 9.28667 34.9818 8.9C34.7751 8.50667 34.6718 8.04 34.6718 7.5C34.6718 6.96 34.7751 6.49667 34.9818 6.11C35.1885 5.71667 35.4718 5.41667 35.8318 5.21C36.1918 5.00333 36.6018 4.9 37.0618 4.9C37.5285 4.9 37.9251 5 38.2518 5.2C38.5851 5.4 38.8385 5.67333 39.0118 6.02C39.1851 6.36 39.2718 6.74333 39.2718 7.17C39.2718 7.28333 39.2685 7.38667 39.2618 7.48C39.2551 7.57333 39.2451 7.65667 39.2318 7.73H35.1918V7.02H38.8818L38.4718 7.1C38.4718 6.62 38.3385 6.25 38.0718 5.99C37.8118 5.73 37.4685 5.6 37.0418 5.6C36.7151 5.6 36.4318 5.67667 36.1918 5.83C35.9585 5.97667 35.7751 6.19333 35.6418 6.48C35.5151 6.76 35.4518 7.1 35.4518 7.5C35.4518 7.89333 35.5185 8.23333 35.6518 8.52C35.7851 8.80667 35.9718 9.02667 36.2118 9.18C36.4585 9.32667 36.7518 9.4 37.0918 9.4C37.4585 9.4 37.7551 9.33 37.9818 9.19C38.2151 9.05 38.4018 8.86 38.5418 8.62L39.1718 8.99C39.0451 9.21667 38.8818 9.41333 38.6818 9.58C38.4885 9.74667 38.2585 9.87667 37.9918 9.97C37.7318 10.0567 37.4385 10.1 37.1118 10.1ZM40.7933 10V5H41.4433L41.5533 5.82C41.6933 5.51333 41.8966 5.28333 42.1633 5.13C42.4366 4.97667 42.7666 4.9 43.1533 4.9C43.2399 4.9 43.3333 4.90667 43.4333 4.92C43.5399 4.93333 43.6299 4.96 43.7033 5L43.5633 5.73C43.4899 5.70333 43.4099 5.68333 43.3233 5.67C43.2366 5.65667 43.1133 5.65 42.9533 5.65C42.7466 5.65 42.5366 5.71 42.3233 5.83C42.1166 5.95 41.9433 6.13333 41.8033 6.38C41.6633 6.62 41.5933 6.92667 41.5933 7.3V10H40.7933Z" fill="#B51F2A"/>
<path d="M244.31 10L242.36 3.4H243.19L244.82 9.27L246.37 3.4H247.28L248.83 9.29L250.46 3.4H251.25L249.31 10H248.32L247.15 5.72L246.81 4.23H246.8L246.46 5.72L245.3 10H244.31ZM255.059 6.77C255.059 6.39667 254.959 6.11 254.759 5.91C254.559 5.70333 254.276 5.6 253.909 5.6C253.562 5.6 253.269 5.67667 253.029 5.83C252.789 5.97667 252.612 6.21667 252.499 6.55L251.849 6.15C251.982 5.77667 252.229 5.47667 252.589 5.25C252.949 5.01667 253.396 4.9 253.929 4.9C254.289 4.9 254.616 4.96333 254.909 5.09C255.202 5.21 255.432 5.39667 255.599 5.65C255.772 5.89667 255.859 6.21667 255.859 6.61V9.03C255.859 9.27 255.986 9.39 256.239 9.39C256.366 9.39 256.489 9.37333 256.609 9.34L256.569 9.97C256.436 10.0367 256.262 10.07 256.049 10.07C255.856 10.07 255.682 10.0333 255.529 9.96C255.376 9.88667 255.256 9.77667 255.169 9.63C255.082 9.47667 255.039 9.28667 255.039 9.06V8.96L255.239 8.99C255.159 9.25 255.022 9.46333 254.829 9.63C254.636 9.79 254.419 9.91 254.179 9.99C253.939 10.0633 253.702 10.1 253.469 10.1C253.176 10.1 252.902 10.05 252.649 9.95C252.396 9.85 252.192 9.7 252.039 9.5C251.892 9.29333 251.819 9.04 251.819 8.74C251.819 8.36667 251.942 8.06 252.189 7.82C252.442 7.57333 252.792 7.40667 253.239 7.32L255.219 6.93V7.59L253.609 7.92C253.282 7.98667 253.039 8.08 252.879 8.2C252.719 8.32 252.639 8.48667 252.639 8.7C252.639 8.90667 252.719 9.07667 252.879 9.21C253.046 9.33667 253.279 9.4 253.579 9.4C253.772 9.4 253.956 9.37667 254.129 9.33C254.309 9.27667 254.469 9.2 254.609 9.1C254.749 8.99333 254.859 8.86333 254.939 8.71C255.019 8.55 255.059 8.36333 255.059 8.15V6.77ZM258.203 4.04C258.023 4.04 257.876 3.98667 257.763 3.88C257.656 3.76667 257.603 3.62 257.603 3.44C257.603 3.26 257.656 3.11667 257.763 3.01C257.876 2.89667 258.023 2.84 258.203 2.84C258.383 2.84 258.526 2.89667 258.633 3.01C258.746 3.11667 258.803 3.26 258.803 3.44C258.803 3.62 258.746 3.76667 258.633 3.88C258.526 3.98667 258.383 4.04 258.203 4.04ZM258.603 5V10H257.803V5H258.603ZM262.259 10.1C261.773 10.1 261.323 9.99667 260.909 9.79C260.503 9.58333 260.189 9.29 259.969 8.91L260.649 8.42C260.796 8.72667 261.009 8.96667 261.289 9.14C261.576 9.31333 261.919 9.4 262.319 9.4C262.673 9.4 262.949 9.33333 263.149 9.2C263.349 9.06 263.449 8.88 263.449 8.66C263.449 8.52 263.403 8.39333 263.309 8.28C263.223 8.16 263.053 8.07333 262.799 8.02L261.599 7.77C261.113 7.67 260.763 7.50333 260.549 7.27C260.343 7.03667 260.239 6.74667 260.239 6.4C260.239 6.12667 260.316 5.87667 260.469 5.65C260.629 5.42333 260.853 5.24333 261.139 5.11C261.433 4.97 261.776 4.9 262.169 4.9C262.663 4.9 263.079 4.99667 263.419 5.19C263.759 5.38333 264.013 5.65667 264.179 6.01L263.509 6.45C263.396 6.15667 263.213 5.94333 262.959 5.81C262.706 5.67 262.443 5.6 262.169 5.6C261.929 5.6 261.723 5.63333 261.549 5.7C261.383 5.76667 261.253 5.86 261.159 5.98C261.073 6.09333 261.029 6.22333 261.029 6.37C261.029 6.51667 261.079 6.65333 261.179 6.78C261.279 6.9 261.466 6.98667 261.739 7.04L262.989 7.3C263.456 7.39333 263.783 7.54667 263.969 7.76C264.156 7.97333 264.249 8.23333 264.249 8.54C264.249 8.85333 264.166 9.13 263.999 9.37C263.833 9.60333 263.599 9.78333 263.299 9.91C262.999 10.0367 262.653 10.1 262.259 10.1ZM266.913 3.58V8.62C266.913 8.86667 266.983 9.05 267.123 9.17C267.263 9.29 267.443 9.35 267.663 9.35C267.856 9.35 268.023 9.31667 268.163 9.25C268.303 9.18333 268.429 9.09333 268.543 8.98L268.823 9.65C268.669 9.79 268.486 9.9 268.273 9.98C268.066 10.06 267.826 10.1 267.553 10.1C267.299 10.1 267.063 10.0567 266.843 9.97C266.623 9.87667 266.446 9.73333 266.313 9.54C266.186 9.34 266.119 9.08 266.113 8.76V3.8L266.913 3.58ZM268.733 5V5.69H265.113V5H268.733Z" fill="#B51F2A"/>
<path d="M2.31 78L0.36 71.4H1.19L2.82 77.27L4.37 71.4H5.28L6.83 77.29L8.46 71.4H9.25L7.31 78H6.32L5.15 73.72L4.81 72.23H4.8L4.46 73.72L3.3 78H2.31ZM13.059 74.77C13.059 74.3967 12.959 74.11 12.759 73.91C12.559 73.7033 12.2757 73.6 11.909 73.6C11.5623 73.6 11.269 73.6767 11.029 73.83C10.789 73.9767 10.6123 74.2167 10.499 74.55L9.84898 74.15C9.98232 73.7767 10.229 73.4767 10.589 73.25C10.949 73.0167 11.3957 72.9 11.929 72.9C12.289 72.9 12.6157 72.9633 12.909 73.09C13.2023 73.21 13.4323 73.3967 13.599 73.65C13.7723 73.8967 13.859 74.2167 13.859 74.61V77.03C13.859 77.27 13.9857 77.39 14.239 77.39C14.3657 77.39 14.489 77.3733 14.609 77.34L14.569 77.97C14.4357 78.0367 14.2623 78.07 14.049 78.07C13.8557 78.07 13.6823 78.0333 13.529 77.96C13.3757 77.8867 13.2557 77.7767 13.169 77.63C13.0823 77.4767 13.039 77.2867 13.039 77.06V76.96L13.239 76.99C13.159 77.25 13.0223 77.4633 12.829 77.63C12.6357 77.79 12.419 77.91 12.179 77.99C11.939 78.0633 11.7023 78.1 11.469 78.1C11.1757 78.1 10.9023 78.05 10.649 77.95C10.3957 77.85 10.1923 77.7 10.039 77.5C9.89232 77.2933 9.81898 77.04 9.81898 76.74C9.81898 76.3667 9.94232 76.06 10.189 75.82C10.4423 75.5733 10.7923 75.4067 11.239 75.32L13.219 74.93V75.59L11.609 75.92C11.2823 75.9867 11.039 76.08 10.879 76.2C10.719 76.32 10.639 76.4867 10.639 76.7C10.639 76.9067 10.719 77.0767 10.879 77.21C11.0457 77.3367 11.279 77.4 11.579 77.4C11.7723 77.4 11.9557 77.3767 12.129 77.33C12.309 77.2767 12.469 77.2 12.609 77.1C12.749 76.9933 12.859 76.8633 12.939 76.71C13.019 76.55 13.059 76.3633 13.059 76.15V74.77ZM16.203 72.04C16.023 72.04 15.8764 71.9867 15.763 71.88C15.6564 71.7667 15.603 71.62 15.603 71.44C15.603 71.26 15.6564 71.1167 15.763 71.01C15.8764 70.8967 16.023 70.84 16.203 70.84C16.383 70.84 16.5264 70.8967 16.633 71.01C16.7464 71.1167 16.803 71.26 16.803 71.44C16.803 71.62 16.7464 71.7667 16.633 71.88C16.5264 71.9867 16.383 72.04 16.203 72.04ZM16.603 73V78H15.803V73H16.603ZM20.2593 78.1C19.7726 78.1 19.3226 77.9967 18.9093 77.79C18.5026 77.5833 18.1893 77.29 17.9693 76.91L18.6493 76.42C18.796 76.7267 19.0093 76.9667 19.2893 77.14C19.576 77.3133 19.9193 77.4 20.3193 77.4C20.6726 77.4 20.9493 77.3333 21.1493 77.2C21.3493 77.06 21.4493 76.88 21.4493 76.66C21.4493 76.52 21.4026 76.3933 21.3093 76.28C21.2226 76.16 21.0526 76.0733 20.7993 76.02L19.5993 75.77C19.1126 75.67 18.7626 75.5033 18.5493 75.27C18.3426 75.0367 18.2393 74.7467 18.2393 74.4C18.2393 74.1267 18.316 73.8767 18.4693 73.65C18.6293 73.4233 18.8526 73.2433 19.1393 73.11C19.4326 72.97 19.776 72.9 20.1693 72.9C20.6626 72.9 21.0793 72.9967 21.4193 73.19C21.7593 73.3833 22.0126 73.6567 22.1793 74.01L21.5093 74.45C21.396 74.1567 21.2126 73.9433 20.9593 73.81C20.706 73.67 20.4426 73.6 20.1693 73.6C19.9293 73.6 19.7226 73.6333 19.5493 73.7C19.3826 73.7667 19.2526 73.86 19.1593 73.98C19.0726 74.0933 19.0293 74.2233 19.0293 74.37C19.0293 74.5167 19.0793 74.6533 19.1793 74.78C19.2793 74.9 19.466 74.9867 19.7393 75.04L20.9893 75.3C21.456 75.3933 21.7826 75.5467 21.9693 75.76C22.156 75.9733 22.2493 76.2333 22.2493 76.54C22.2493 76.8533 22.166 77.13 21.9993 77.37C21.8326 77.6033 21.5993 77.7833 21.2993 77.91C20.9993 78.0367 20.6526 78.1 20.2593 78.1ZM24.9127 71.58V76.62C24.9127 76.8667 24.9827 77.05 25.1227 77.17C25.2627 77.29 25.4427 77.35 25.6627 77.35C25.8561 77.35 26.0227 77.3167 26.1627 77.25C26.3027 77.1833 26.4294 77.0933 26.5427 76.98L26.8227 77.65C26.6694 77.79 26.4861 77.9 26.2727 77.98C26.0661 78.06 25.8261 78.1 25.5527 78.1C25.2994 78.1 25.0627 78.0567 24.8427 77.97C24.6227 77.8767 24.4461 77.7333 24.3127 77.54C24.1861 77.34 24.1194 77.08 24.1127 76.76V71.8L24.9127 71.58ZM26.7327 73V73.69H23.1127V73H26.7327Z" fill="#B51F2A"/>
<path d="M6.26 91.4V98H5.46V91.4H6.26ZM1.88 91.4V98H1.08V91.4H1.88ZM5.83 94.28V95.03H1.5V94.28H5.83ZM8.67375 92.04C8.49375 92.04 8.34708 91.9867 8.23375 91.88C8.12708 91.7667 8.07375 91.62 8.07375 91.44C8.07375 91.26 8.12708 91.1167 8.23375 91.01C8.34708 90.8967 8.49375 90.84 8.67375 90.84C8.85375 90.84 8.99708 90.8967 9.10375 91.01C9.21708 91.1167 9.27375 91.26 9.27375 91.44C9.27375 91.62 9.21708 91.7667 9.10375 91.88C8.99708 91.9867 8.85375 92.04 8.67375 92.04ZM9.07375 93V98H8.27375V93H9.07375ZM10.93 100.1V93H11.63L11.7 94.22L11.59 94.08C11.6767 93.8467 11.8067 93.6433 11.98 93.47C12.1533 93.29 12.3633 93.15 12.61 93.05C12.8567 92.95 13.1233 92.9 13.41 92.9C13.8167 92.9 14.19 93.0033 14.53 93.21C14.8767 93.4167 15.1533 93.7133 15.36 94.1C15.5667 94.4867 15.67 94.9533 15.67 95.5C15.67 96.04 15.5633 96.5067 15.35 96.9C15.1433 97.2867 14.8667 97.5833 14.52 97.79C14.1733 97.9967 13.7933 98.1 13.38 98.1C12.9667 98.1 12.6033 98 12.29 97.8C11.9833 97.5933 11.7633 97.3333 11.63 97.02L11.73 96.87V100.1H10.93ZM13.3 97.4C13.7933 97.4 14.1767 97.2267 14.45 96.88C14.73 96.5333 14.87 96.0733 14.87 95.5C14.87 94.9267 14.7333 94.4667 14.46 94.12C14.1933 93.7733 13.8167 93.6 13.33 93.6C13.01 93.6 12.73 93.68 12.49 93.84C12.25 93.9933 12.0633 94.2133 11.93 94.5C11.7967 94.78 11.73 95.1133 11.73 95.5C11.73 95.88 11.7933 96.2133 11.92 96.5C12.0533 96.7867 12.2367 97.01 12.47 97.17C12.71 97.3233 12.9867 97.4 13.3 97.4ZM18.9995 98.1C18.5129 98.1 18.0629 97.9967 17.6495 97.79C17.2429 97.5833 16.9295 97.29 16.7095 96.91L17.3895 96.42C17.5362 96.7267 17.7495 96.9667 18.0295 97.14C18.3162 97.3133 18.6595 97.4 19.0595 97.4C19.4129 97.4 19.6895 97.3333 19.8895 97.2C20.0895 97.06 20.1895 96.88 20.1895 96.66C20.1895 96.52 20.1429 96.3933 20.0495 96.28C19.9629 96.16 19.7929 96.0733 19.5395 96.02L18.3395 95.77C17.8529 95.67 17.5029 95.5033 17.2895 95.27C17.0829 95.0367 16.9795 94.7467 16.9795 94.4C16.9795 94.1267 17.0562 93.8767 17.2095 93.65C17.3695 93.4233 17.5929 93.2433 17.8795 93.11C18.1729 92.97 18.5162 92.9 18.9095 92.9C19.4029 92.9 19.8195 92.9967 20.1595 93.19C20.4995 93.3833 20.7529 93.6567 20.9195 94.01L20.2495 94.45C20.1362 94.1567 19.9529 93.9433 19.6995 93.81C19.4462 93.67 19.1829 93.6 18.9095 93.6C18.6695 93.6 18.4629 93.6333 18.2895 93.7C18.1229 93.7667 17.9929 93.86 17.8995 93.98C17.8129 94.0933 17.7695 94.2233 17.7695 94.37C17.7695 94.5167 17.8195 94.6533 17.9195 94.78C18.0195 94.9 18.2062 94.9867 18.4795 95.04L19.7295 95.3C20.1962 95.3933 20.5229 95.5467 20.7095 95.76C20.8962 95.9733 20.9895 96.2333 20.9895 96.54C20.9895 96.8533 20.9062 97.13 20.7395 97.37C20.5729 97.6033 20.3395 97.7833 20.0395 97.91C19.7395 98.0367 19.3929 98.1 18.9995 98.1Z" fill="#B51F2A"/>
<path d="M40 127.5L47 58.5L49 52L61 53C59.8333 57.1667 57.6 67.5 58 75.5C58.5 85.5 54.5 95.5 52 100C49.5 104.5 48 122 50.5 125.5C52.5 128.3 50.6667 137.667 49.5 142L48 141V133.5L47 132.5C46.6667 135.333 45.9 141 45.5 141C45.1 141 48 145.333 49.5 147.5C47.3333 146.167 42.7 143.4 41.5 143C40.3 142.6 39.3333 138.833 39 137L40 127.5Z" fill="white" stroke="#B51F2A" stroke-opacity="0.4" stroke-width="0.5"/>
<path d="M120.513 89.2074L117.951 69.7996C116.148 62.5318 113.254 48.0855 116.098 48.4428C118.942 48.8 123.511 52.833 125.441 54.8048L132.937 85.487L138.188 115.609C139.501 120.635 139.928 118.832 140.656 127.225C141.379 135.555 136.936 139.2 133.827 140.502C133.803 140.513 133.78 140.522 133.757 140.531C133.78 140.522 133.803 140.512 133.827 140.502C136.831 139.16 137.568 126.276 134.592 129.889C135.201 132.856 133.469 135.523 132.527 136.485L131.022 127.225C131.765 125.65 132.522 121.235 132.47 120.635L131.983 115.015C130.483 113.937 123.712 97.3608 120.513 89.2074Z" fill="white"/>
<path d="M134.592 129.889C135.201 132.856 133.469 135.523 132.527 136.485L131.022 127.225C131.765 125.65 132.522 121.235 132.47 120.635C132.418 120.036 132.124 116.639 131.983 115.015C130.483 113.937 123.712 97.3608 120.513 89.2074L117.951 69.7996C116.148 62.5318 113.254 48.0855 116.098 48.4428C118.942 48.8 123.511 52.833 125.441 54.8048L132.937 85.487L138.188 115.609C139.501 120.635 139.928 118.832 140.656 127.225C141.384 135.617 136.869 139.254 133.757 140.531C136.82 139.359 137.591 126.248 134.592 129.889ZM134.592 129.889C133.983 126.922 134.483 128.64 134.592 129.889Z" stroke="#B51F2A" stroke-opacity="0.4" stroke-width="0.5"/>
<path d="M62.8849 6.60467L74.5321 1C77.3636 10.5746 86.9324 23.9791 102.555 1L113.502 6.60467C111.809 12.9683 111.575 25.5204 111.575 25.5204C111.575 25.5204 111.313 25.2577 112.101 31.2127C112.752 36.132 125.529 119.282 131.542 160.295C127.952 163.798 118.949 170.804 111.663 170.804C102.555 170.804 93.01 165.549 90.9958 170.804C89.3845 175.007 79.3486 172.555 74.5321 170.804C67.5846 170.395 53.1643 168.65 51.0625 164.936C48.9608 161.223 58.0684 97.9432 62.8849 66.7672L56.4045 93.477L36 87.8723L62.8849 6.60467Z" fill="white"/>
<path d="M62.8849 6.60467L74.5321 1C77.3636 10.5746 86.9324 23.9791 102.555 1L113.502 6.60467C111.809 12.9683 111.575 25.5204 111.575 25.5204C111.575 25.5204 111.313 25.2577 112.101 31.2127C112.752 36.132 125.529 119.282 131.542 160.295C127.952 163.798 118.949 170.804 111.663 170.804C102.555 170.804 93.01 165.549 90.9958 170.804C89.3845 175.007 79.3486 172.555 74.5321 170.804C67.5846 170.395 53.1643 168.65 51.0625 164.936C48.9608 161.223 58.0684 97.9432 62.8849 66.7672M62.8849 6.60467C68.6997 11.0884 64.9655 29.6034 64.9655 37.931L62.8849 66.7672M62.8849 6.60467L36 87.8723M62.8849 66.7672L56.4045 93.477M36 87.8723L56.4045 93.477M36 87.8723L37.9266 84.7197L56.4045 90.4119V93.477" stroke="#B51F2A" stroke-opacity="0.4" stroke-width="0.5"/>
<path d="M141.003 88.0475L113.243 6.51709C110.44 17.7264 112.075 30.6872 113.243 35.7664L121.124 92.9515L141.003 88.0475Z" fill="white" stroke="#B51F2A" stroke-opacity="0.4" stroke-width="0.5"/>
<rect x="63.25" y="6.25" width="49.5" height="0.5" stroke="#757575" stroke-opacity="0.2" stroke-width="0.5" stroke-dasharray="2 2"/>
<path d="M109.784 22.1142C110.47 22.242 111.007 22.3775 111.38 22.5188L111.238 22.8929C111.341 22.9317 111.421 22.9678 111.482 23C111.421 23.0322 111.341 23.0683 111.238 23.1071L111.38 23.4812C111.007 23.6225 110.47 23.758 109.784 23.8858L109.711 23.4925C109.246 23.5791 108.709 23.6626 108.104 23.7421L108.156 24.1387C107.654 24.2047 107.107 24.2678 106.518 24.3277L106.478 23.9297C105.964 23.9819 105.418 24.0317 104.841 24.0789L104.874 24.4776C104.351 24.5203 103.802 24.5609 103.231 24.5991L103.204 24.2C102.678 24.2351 102.131 24.2683 101.565 24.2993L101.587 24.6987C101.055 24.7279 100.507 24.7552 99.9422 24.7805L99.9242 24.3809C99.3898 24.4049 98.8409 24.4271 98.2783 24.4474L98.2928 24.8471C97.7563 24.8665 97.2076 24.8841 96.6471 24.9L96.6358 24.5001C96.0977 24.5154 95.5487 24.529 94.9894 24.5409L94.9979 24.9408C94.4584 24.9522 93.9094 24.9621 93.3513 24.9703L93.3455 24.5704C92.8043 24.5783 92.2546 24.5847 91.6968 24.5895L91.7003 24.9895C91.1591 24.9942 90.6103 24.9973 90.0544 24.9988L90.0533 24.5988C89.7798 24.5996 89.5046 24.6 89.2277 24.6C88.9458 24.6 88.6653 24.5996 88.3865 24.5988L88.3854 24.9988C87.8191 24.9972 87.2595 24.9939 86.7069 24.9891L86.7104 24.5891C86.1427 24.5842 85.5825 24.5776 85.0304 24.5694L85.0245 24.9694C84.4565 24.9609 83.897 24.9508 83.3466 24.939L83.3552 24.5391C82.7854 24.5269 82.2254 24.513 81.6759 24.4974L81.6646 24.8972C81.0944 24.881 80.5354 24.8631 79.9885 24.8433L80.0029 24.4436C79.4297 24.4229 78.8698 24.4004 78.324 24.376L78.3062 24.7756C77.7308 24.75 77.1711 24.7223 76.6279 24.6927L76.6497 24.2933C76.0733 24.2619 75.5157 24.2284 74.9783 24.1929L74.9519 24.5921C74.3695 24.5536 73.8104 24.5128 73.2763 24.4697L73.3084 24.071C72.7212 24.0237 72.1646 23.9738 71.6406 23.9215L71.6009 24.3195C71.0021 24.2598 70.4451 24.1968 69.9331 24.131L69.9841 23.7343C69.3674 23.6551 68.8189 23.572 68.3435 23.4858L68.2722 23.8794C67.5734 23.7528 67.0242 23.6186 66.6408 23.4787L66.778 23.1029C66.6768 23.066 66.596 23.0313 66.5331 23C66.596 22.9687 66.6768 22.934 66.778 22.8971L66.6408 22.5213C67.0242 22.3814 67.5734 22.2472 68.2722 22.1206L68.3435 22.5142C68.8189 22.428 69.3674 22.3449 69.9841 22.2657L69.9331 21.869C70.4451 21.8032 71.0021 21.7402 71.6009 21.6805L71.6406 22.0785C72.1646 22.0262 72.7212 21.9763 73.3084 21.929L73.2763 21.5303C73.8104 21.4872 74.3695 21.4464 74.9519 21.4079L74.9783 21.8071C75.5157 21.7716 76.0733 21.7381 76.6497 21.7067L76.628 21.3073C77.1711 21.2777 77.7308 21.25 78.3062 21.2244L78.324 21.624C78.8698 21.5996 79.4297 21.5771 80.0029 21.5564L79.9885 21.1567C80.5354 21.1369 81.0944 21.119 81.6646 21.1028L81.6759 21.5026C82.2254 21.487 82.7854 21.4731 83.3552 21.4609L83.3466 21.061C83.897 21.0492 84.4565 21.0391 85.0245 21.0306L85.0304 21.4306C85.5825 21.4224 86.1427 21.4158 86.7104 21.4109L86.7069 21.0109C87.2595 21.0061 87.8191 21.0028 88.3854 21.0012L88.3865 21.4012C88.6653 21.4004 88.9458 21.4 89.2277 21.4C89.5046 21.4 89.7798 21.4004 90.0533 21.4012L90.0544 21.0012C90.6103 21.0027 91.1591 21.0058 91.7003 21.0105L91.6968 21.4105C92.2546 21.4153 92.8043 21.4217 93.3455 21.4296L93.3513 21.0297C93.9094 21.0379 94.4584 21.0478 94.9979 21.0592L94.9894 21.4591C95.5487 21.471 96.0977 21.4846 96.6358 21.4999L96.6471 21.1C97.2076 21.1159 97.7563 21.1335 98.2928 21.1529L98.2783 21.5526C98.8409 21.5729 99.3898 21.5951 99.9242 21.6191L99.9422 21.2195C100.507 21.2448 101.055 21.2721 101.587 21.3013L101.565 21.7007C102.131 21.7317 102.678 21.7649 103.204 21.8L103.231 21.4009C103.802 21.4391 104.351 21.4797 104.874 21.5224L104.841 21.9211C105.418 21.9683 105.964 22.0181 106.478 22.0703L106.518 21.6723C107.107 21.7322 107.654 21.7953 108.156 21.8613L108.104 22.2579C108.709 22.3374 109.246 22.4209 109.711 22.5075L109.784 22.1142ZM111.628 23.0986C111.628 23.0986 111.627 23.0975 111.626 23.0954C111.628 23.0975 111.628 23.0985 111.628 23.0986ZM111.628 22.9014C111.628 22.9015 111.628 22.9025 111.626 22.9047C111.627 22.9025 111.628 22.9014 111.628 22.9014ZM66.3684 22.8942C66.3686 22.8941 66.3698 22.8954 66.3718 22.898C66.3693 22.8954 66.3683 22.8942 66.3684 22.8942ZM66.3684 23.1058C66.3683 23.1058 66.3693 23.1046 66.3718 23.102C66.3698 23.1046 66.3686 23.1059 66.3684 23.1058Z" stroke="#757575" stroke-opacity="0.32" stroke-width="0.8" stroke-dasharray="1.6 1.6"/>
<path d="M115.885 72.2099C116.535 72.3246 117.044 72.4449 117.399 72.5696L117.267 72.947C117.319 72.9654 117.366 72.9832 117.406 73C117.366 73.0168 117.319 73.0346 117.267 73.053L117.399 73.4304C117.044 73.5551 116.535 73.6754 115.885 73.7901L115.816 73.3962C115.377 73.4737 114.87 73.549 114.299 73.6216L114.349 74.0184C113.875 74.0787 113.358 74.1369 112.8 74.1928L112.761 73.7948C112.278 73.8433 111.764 73.8901 111.221 73.9351L111.254 74.3337C110.762 74.3745 110.246 74.4138 109.706 74.4514L109.679 74.0524C109.181 74.0872 108.664 74.1205 108.128 74.1525L108.152 74.5518C107.651 74.5816 107.134 74.6101 106.602 74.6374L106.581 74.2379C106.077 74.2637 105.558 74.2882 105.026 74.3116L105.044 74.7112C104.539 74.7333 104.023 74.7543 103.495 74.7741L103.48 74.3744C102.973 74.3933 102.456 74.4112 101.928 74.428L101.941 74.8278C101.432 74.844 100.913 74.8591 100.385 74.8732L100.374 74.4733C99.8644 74.4869 99.3461 74.4994 98.8196 74.5109L98.8283 74.9108C98.3184 74.922 97.8008 74.9321 97.2758 74.9412L97.2688 74.5413C96.7584 74.5502 96.241 74.5581 95.7168 74.565L95.7221 74.9649C95.2103 74.9717 94.6921 74.9775 94.1677 74.9823L94.1641 74.5824C93.6521 74.5871 93.1343 74.5909 92.6109 74.5937L92.613 74.9937C92.1 74.9965 91.5817 74.9984 91.0582 74.9993L91.0574 74.5993C90.7986 74.5998 90.5385 74.6 90.2772 74.6C90.0111 74.6 89.7461 74.5998 89.4822 74.5993L89.4815 74.9993C88.9483 74.9983 88.4198 74.9964 87.8963 74.9935L87.8985 74.5935C87.3653 74.5906 86.8374 74.5866 86.315 74.5818L86.3113 74.9817C85.7772 74.9768 85.2489 74.9708 84.7267 74.9638L84.732 74.5639C84.1982 74.5567 83.6707 74.5486 83.15 74.5395L83.143 74.9395C82.6076 74.9301 82.0794 74.9197 81.5586 74.9083L81.5673 74.5084C81.0308 74.4966 80.5023 74.4838 79.9821 74.47L79.9715 74.8698C79.4339 74.8555 78.9052 74.8401 78.3858 74.8236L78.3985 74.4238C77.8613 74.4068 77.3342 74.3886 76.8177 74.3693L76.8028 74.769C76.2637 74.7489 75.736 74.7276 75.2204 74.7052L75.2378 74.3055C74.6962 74.282 74.168 74.2572 73.6538 74.2311L73.6336 74.6306C73.092 74.6032 72.5657 74.5745 72.0557 74.5445L72.0791 74.1451C71.5323 74.113 71.0042 74.0794 70.4959 74.0444L70.4684 74.4434C69.9186 74.4056 69.3915 74.3662 68.8885 74.3253L68.9209 73.9266C68.3673 73.8815 67.8432 73.8347 67.3502 73.7862L67.311 74.1843C66.7437 74.1285 66.2169 74.0705 65.733 74.0105L65.7822 73.6135C65.2008 73.5414 64.6842 73.4667 64.2361 73.3898L64.1685 73.7841C63.5059 73.6704 62.9857 73.5514 62.621 73.4281L62.7492 73.0492C62.6989 73.0322 62.6539 73.0157 62.6138 73C62.6539 72.9843 62.6989 72.9678 62.7492 72.9508L62.621 72.5719C62.9857 72.4486 63.5059 72.3296 64.1685 72.2159L64.2362 72.6102C64.6842 72.5333 65.2008 72.4586 65.7822 72.3865L65.733 71.9895C66.2169 71.9295 66.7437 71.8715 67.311 71.8157L67.3502 72.2138C67.8432 72.1653 68.3673 72.1185 68.9209 72.0734L68.8885 71.6747C69.3915 71.6338 69.9186 71.5944 70.4684 71.5566L70.4959 71.9556C71.0042 71.9206 71.5323 71.887 72.0791 71.8549L72.0557 71.4555C72.5657 71.4255 73.092 71.3968 73.6336 71.3694L73.6538 71.7689C74.168 71.7428 74.6962 71.718 75.2377 71.6945L75.2204 71.2948C75.736 71.2724 76.2637 71.2511 76.8028 71.231L76.8177 71.6307C77.3342 71.6114 77.8613 71.5932 78.3985 71.5762L78.3858 71.1764C78.9052 71.1599 79.4339 71.1445 79.9715 71.1302L79.9821 71.53C80.5023 71.5162 81.0308 71.5034 81.5673 71.4916L81.5586 71.0917C82.0794 71.0803 82.6076 71.0699 83.143 71.0605L83.15 71.4605C83.6707 71.4514 84.1982 71.4433 84.732 71.4361L84.7267 71.0362C85.2489 71.0292 85.7772 71.0232 86.3113 71.0183L86.315 71.4182C86.8374 71.4134 87.3653 71.4094 87.8985 71.4065L87.8963 71.0065C88.4198 71.0036 88.9483 71.0017 89.4815 71.0007L89.4822 71.4007C89.7461 71.4002 90.0111 71.4 90.2772 71.4C90.5385 71.4 90.7986 71.4002 91.0575 71.4007L91.0582 71.0007C91.5817 71.0016 92.1 71.0035 92.613 71.0063L92.6109 71.4063C93.1343 71.4091 93.6521 71.4129 94.1641 71.4176L94.1678 71.0177C94.6921 71.0225 95.2103 71.0283 95.7221 71.0351L95.7168 71.435C96.241 71.4419 96.7584 71.4498 97.2688 71.4587L97.2758 71.0588C97.8008 71.0679 98.3184 71.078 98.8283 71.0892L98.8196 71.4891C99.3461 71.5006 99.8644 71.5131 100.374 71.5267L100.385 71.1268C100.913 71.1409 101.432 71.156 101.941 71.1722L101.928 71.572C102.456 71.5888 102.973 71.6067 103.48 71.6256L103.495 71.2259C104.023 71.2457 104.539 71.2667 105.044 71.2888L105.026 71.6884C105.558 71.7118 106.077 71.7363 106.581 71.7621L106.602 71.3626C107.134 71.3899 107.651 71.4184 108.152 71.4482L108.128 71.8475C108.664 71.8795 109.181 71.9128 109.679 71.9476L109.706 71.5486C110.246 71.5862 110.762 71.6255 111.254 71.6663L111.221 72.0649C111.764 72.1099 112.278 72.1567 112.761 72.2052L112.8 71.8072C113.358 71.8631 113.875 71.9213 114.349 71.9816L114.299 72.3784C114.87 72.451 115.377 72.5263 115.816 72.6038L115.885 72.2099Z" stroke="#757575" stroke-opacity="0.32" stroke-width="0.8" stroke-dasharray="1.6 1.6"/>
<path d="M118.883 90.2467C119.528 90.3556 120.033 90.4692 120.388 90.5867L120.262 90.9664C120.297 90.9779 120.329 90.9891 120.358 91C120.329 91.0109 120.297 91.0221 120.262 91.0336L120.388 91.4133C120.033 91.5308 119.528 91.6444 118.883 91.7533L118.816 91.3589C118.378 91.4329 117.873 91.505 117.302 91.5748L117.351 91.9719C116.88 92.0295 116.367 92.0853 115.813 92.1393L115.774 91.7412C115.292 91.7881 114.779 91.8337 114.236 91.8777L114.268 92.2764C113.779 92.316 113.266 92.3543 112.73 92.3912L112.703 91.9922C112.208 92.0263 111.694 92.0593 111.16 92.091L111.184 92.4903C110.686 92.5199 110.172 92.5484 109.642 92.5757L109.622 92.1763C109.12 92.2021 108.605 92.227 108.076 92.2508L108.094 92.6504C107.591 92.6731 107.075 92.6948 106.548 92.7154L106.532 92.3157C106.029 92.3355 105.515 92.3543 104.991 92.3721L105.004 92.7719C104.499 92.7891 103.983 92.8055 103.459 92.8209L103.447 92.4211C102.941 92.4359 102.426 92.45 101.902 92.4631L101.912 92.863C101.405 92.8757 100.889 92.8877 100.366 92.8987L100.357 92.4988C99.849 92.5096 99.3337 92.5195 98.8116 92.5286L98.8185 92.9286C98.3094 92.9375 97.7936 92.9456 97.2716 92.9528L97.266 92.5529C96.7568 92.56 96.2416 92.5663 95.7205 92.5718L95.7247 92.9718C95.2146 92.9772 94.699 92.9819 94.1779 92.9858L94.175 92.5858C93.6648 92.5896 93.1496 92.5926 92.6294 92.5949L92.6311 92.9949C92.1202 92.9972 91.6045 92.9987 91.0843 92.9994L91.0837 92.5994C90.8259 92.5998 90.567 92.6 90.3069 92.6C90.0421 92.6 89.7782 92.5998 89.5154 92.5994L89.5149 92.9994C88.9848 92.9986 88.459 92.9971 87.9375 92.9947L87.9393 92.5947C87.4093 92.5924 86.8839 92.5892 86.3633 92.5853L86.3603 92.9853C85.8294 92.9813 85.3036 92.9765 84.783 92.9709L84.7873 92.5709C84.2564 92.5652 83.731 92.5587 83.2113 92.5514L83.2057 92.9514C82.6738 92.9439 82.148 92.9356 81.6284 92.9265L81.6354 92.5265C81.1034 92.5172 80.5781 92.507 80.0597 92.496L80.0512 92.8959C79.5181 92.8846 78.9923 92.8724 78.4742 92.8594L78.4843 92.4596C77.9511 92.4462 77.4261 92.4319 76.9097 92.4167L76.8979 92.8165C76.3637 92.8009 75.8386 92.7843 75.3229 92.7668L75.3365 92.367C74.8023 92.3489 74.2783 92.3299 73.765 92.3099L73.7495 92.7096C73.2109 92.6886 72.684 92.6666 72.1694 92.6437L72.1872 92.2441C71.6489 92.2201 71.124 92.195 70.6131 92.1689L70.5927 92.5684C70.0537 92.5409 69.5302 92.5122 69.023 92.4825L69.0464 92.0832C68.5018 92.0513 67.9761 92.0181 67.4702 91.9838L67.4431 92.3829C66.8973 92.3459 66.3743 92.3075 65.8752 92.2678L65.9069 91.8691C65.3541 91.8252 64.8312 91.7797 64.3395 91.7329L64.3016 92.1311C63.7378 92.0773 63.2144 92.0217 62.7337 91.9643L62.7811 91.5672C62.1984 91.4976 61.681 91.4258 61.2325 91.3522L61.1677 91.7469C60.5121 91.6393 59.9964 91.527 59.6328 91.411L59.7544 91.0299C59.7224 91.0197 59.6926 91.0097 59.6646 91C59.6926 90.9903 59.7224 90.9803 59.7544 90.9701L59.6328 90.589C59.9964 90.473 60.5121 90.3607 61.1677 90.2531L61.2325 90.6478C61.681 90.5742 62.1984 90.5024 62.7811 90.4328L62.7337 90.0357C63.2144 89.9783 63.7378 89.9227 64.3016 89.8689L64.3395 90.2671C64.8312 90.2203 65.3541 90.1748 65.9069 90.1309L65.8752 89.7322C66.3743 89.6925 66.8973 89.6541 67.4431 89.6171L67.4702 90.0162C67.9761 89.9819 68.5018 89.9487 69.0464 89.9168L69.023 89.5175C69.5302 89.4878 70.0537 89.4591 70.5927 89.4316L70.6131 89.8311C71.124 89.805 71.6489 89.7799 72.1872 89.7559L72.1694 89.3563C72.684 89.3334 73.2109 89.3114 73.7495 89.2904L73.765 89.6901C74.2783 89.6701 74.8023 89.6511 75.3365 89.633L75.3229 89.2332C75.8386 89.2157 76.3637 89.1991 76.8979 89.1835L76.9097 89.5833C77.4261 89.5681 77.9511 89.5538 78.4843 89.5404L78.4742 89.1406C78.9923 89.1276 79.5181 89.1154 80.0512 89.1041L80.0597 89.504C80.5781 89.493 81.1034 89.4828 81.6354 89.4735L81.6284 89.0735C82.148 89.0644 82.6738 89.0561 83.2057 89.0486L83.2113 89.4486C83.731 89.4413 84.2564 89.4348 84.7873 89.4291L84.783 89.0291C85.3036 89.0235 85.8294 89.0187 86.3603 89.0147L86.3633 89.4147C86.8839 89.4108 87.4093 89.4076 87.9393 89.4053L87.9375 89.0053C88.459 89.0029 88.9848 89.0014 89.5149 89.0006L89.5154 89.4006C89.7782 89.4002 90.0421 89.4 90.3069 89.4C90.567 89.4 90.8259 89.4002 91.0837 89.4006L91.0843 89.0006C91.6045 89.0013 92.1202 89.0028 92.6311 89.0051L92.6294 89.4051C93.1496 89.4074 93.6648 89.4104 94.175 89.4142L94.1779 89.0142C94.699 89.0181 95.2146 89.0228 95.7247 89.0282L95.7205 89.4282C96.2415 89.4337 96.7568 89.44 97.266 89.4471L97.2716 89.0472C97.7936 89.0544 98.3094 89.0625 98.8185 89.0714L98.8116 89.4714C99.3337 89.4805 99.849 89.4904 100.357 89.5012L100.366 89.1013C100.889 89.1123 101.405 89.1243 101.912 89.137L101.902 89.5369C102.426 89.55 102.941 89.5641 103.447 89.5789L103.459 89.1791C103.983 89.1945 104.499 89.2109 105.004 89.2281L104.991 89.6279C105.515 89.6457 106.029 89.6645 106.532 89.6843L106.548 89.2846C107.075 89.3052 107.591 89.3269 108.094 89.3496L108.076 89.7492C108.605 89.773 109.12 89.7979 109.622 89.8237L109.642 89.4243C110.172 89.4516 110.686 89.4801 111.184 89.5097L111.16 89.909C111.694 89.9407 112.208 89.9737 112.703 90.0078L112.73 89.6087C113.266 89.6457 113.779 89.684 114.268 89.7236L114.236 90.1223C114.779 90.1663 115.292 90.2119 115.774 90.2588L115.813 89.8607C116.367 89.9147 116.88 89.9705 117.351 90.0281L117.302 90.4252C117.873 90.495 118.378 90.5671 118.816 90.6411L118.883 90.2467Z" stroke="#757575" stroke-opacity="0.32" stroke-width="0.8" stroke-dasharray="1.6 1.6"/>
</svg>
