<svg id="Layer_1" enable-background="new 0 0 66 66" height="512" viewBox="0 0 66 66" width="512" xmlns="http://www.w3.org/2000/svg"><g><path d="m63.22 1.25h-23.8c-2.01 0-3.89.78-5.31 2.2l-5.03 5.03h-14.12c-1.27 0-2.3 1.03-2.3 2.3v17.53c0 1.27 1.03 2.3 2.3 2.3h35.81c1.27 0 2.3-1.03 2.3-2.3v-10.79c1.35-.35 2.59-1.05 3.61-2.04h6.54c.41 0 .75-.34.75-.75v-12.73c0-.42-.34-.75-.75-.75zm-28.05 3.26c1.13-1.13 2.64-1.76 4.25-1.76h16.22v11.67c-1.22 1.18-2.82 1.85-4.53 1.88-1.82.01-3.53-.66-4.82-1.93-.29-.29-.77-.29-1.06 0l-6.17 6.17c-.46.46-1.09.7-1.73.67-.65-.03-1.25-.33-1.67-.84-.74-.9-.63-2.29.25-3.17l7.44-7.44c.21-.21.28-.54.16-.82s-.39-.46-.69-.46h-6.38-5.23zm-.67 16.82c.56.68 1.34 1.12 2.19 1.3-.92 1.14-2.32 1.84-3.82 1.84-2.71 0-4.92-2.21-4.92-4.92s2.21-4.92 4.92-4.92c.96 0 1.88.29 2.68.81l-.71.71c-1.42 1.41-1.57 3.69-.34 5.18zm17.07 6.98c0 .44-.36.8-.8.8h-35.81c-.44 0-.8-.36-.8-.8v-17.53c0-.44.36-.8.8-.8h26.04l-4.39 4.39c-1.09-.79-2.39-1.25-3.75-1.25-3.54 0-6.42 2.88-6.42 6.42s2.88 6.42 6.42 6.42c2.38 0 4.55-1.34 5.66-3.44.59-.18 1.14-.49 1.58-.93l5.67-5.67c1.46 1.21 3.28 1.87 5.21 1.87h.14c.15 0 .3-.02.45-.03zm10.9-14.33h-5.34v-11.23h5.34z"/><path d="m50.68 50.15c-.99-.53-2.17-.62-3.22-.24l-10.46 3.75c.05-.16.09-.32.11-.49.19-1.16-.13-2.33-.88-3.21s-1.85-1.39-3-1.39h-5.79c-1.33 0-2.62-.46-3.72-1.34-2.52-2.01-7.63-4.68-14.33-.96v-1.23c0-.95-.77-1.73-1.73-1.73h-3.9c-.95 0-1.73.77-1.73 1.73v16.72c0 .95.77 1.73 1.73 1.73h3.91c.95 0 1.73-.77 1.73-1.73v-.75c1.31-.01 4.5.19 9.07 1.98 2.98 1.17 6.08 1.75 9.16 1.75 1.71 0 3.43-.18 5.11-.55 4.63-1.01 11.54-3.06 18.19-7.13.89-.55 1.54-1.46 1.79-2.5.39-1.73-.43-3.55-2.04-4.41zm-42.79 11.62c0 .12-.1.23-.23.23h-3.9c-.12 0-.23-.1-.23-.23v-16.72c0-.12.1-.23.23-.23h3.91c.12 0 .23.1.23.23v16.72zm43.35-7.54c-.15.65-.56 1.22-1.11 1.56-6.47 3.96-13.21 5.96-17.72 6.94-4.42.96-9.05.57-13.4-1.14-4.66-1.82-7.96-2.09-9.5-2.09-.04 0-.08 0-.12 0v-11.5c6.31-3.9 11.08-1.44 13.39.4 1.35 1.08 3 1.67 4.66 1.67h5.79c.72 0 1.4.31 1.86.86.47.55.67 1.26.55 2-.11.68-.54 1.26-1.14 1.63-.05.02-.09.04-.13.07-.39.21-.84.33-1.31.33h-10.53c-.41 0-.75.34-.75.75s.34.75.75.75h10.52c.74 0 1.45-.19 2.06-.53l12.85-4.61c.66-.24 1.39-.18 2.03.16 1 .53 1.51 1.67 1.25 2.75z"/><path d="m20.3 15.97c-1.97 0-3.57 1.6-3.57 3.57s1.6 3.57 3.57 3.57 3.57-1.6 3.57-3.57-1.6-3.57-3.57-3.57zm0 5.65c-1.14 0-2.07-.93-2.07-2.07s.93-2.07 2.07-2.07 2.07.93 2.07 2.07-.92 2.07-2.07 2.07z"/><path d="m44.51 49.33c.41 0 .75-.34.75-.75v-12.09c0-1.76-1.43-3.2-3.2-3.2h-21.89c-1.76 0-3.2 1.43-3.2 3.2v5.79c0 .41.34.75.75.75s.75-.34.75-.75v-5.79c0-.94.76-1.7 1.7-1.7h6.77v5.26c0 .26.13.49.35.63s.49.16.72.05l3.25-1.49 2.96 1.48c.11.05.22.08.34.08.14 0 .27-.04.39-.11.22-.14.36-.38.36-.64v-5.26h6.77c.94 0 1.7.76 1.7 1.7v12.09c-.02.41.32.75.73.75zm-10.71-10.49-2.19-1.1c-.2-.1-.44-.11-.65-.01l-2.52 1.16v-4.09h5.36z"/></g></svg>