<?xml version="1.0"?>
<svg xmlns="http://www.w3.org/2000/svg" id="Layer_1" data-name="Layer 1" viewBox="0 0 1000 1000"><path d="M500,719c-60.77,0-121.53-11.07-180.59-32.91-47.1-17.41-93.22-41.67-137.07-72.1C107.7,562.21,65.86,511,64.12,508.81a14,14,0,0,1,0-17.62C65.86,489,107.7,437.79,182.34,386c43.85-30.43,90-54.69,137.07-72.1C378.47,292.06,439.23,281,500,281s121.53,11.07,180.59,32.91c47.1,17.41,93.22,41.67,137.07,72.1,74.64,51.79,116.48,103,118.22,105.19a14,14,0,0,1,0,17.62C934.14,511,892.3,562.21,817.66,614c-43.85,30.43-90,54.69-137.07,72.1C621.53,707.94,560.77,719,500,719ZM93.56,500c15,16.62,51.65,54.28,105.48,91.52C264.64,636.9,370.11,691,500,691c130.24,0,236-54.39,301.7-100,53.56-37.17,89.81-74.47,104.74-91-15-16.62-51.65-54.28-105.48-91.52C735.36,363.1,629.89,309,500,309c-130.24,0-235.95,54.39-301.7,100C144.74,446.17,108.49,483.47,93.56,500ZM75,500h0Z"/><path d="M500,645.77c-80.38,0-145.77-65.39-145.77-145.77S419.62,354.23,500,354.23,645.77,419.62,645.77,500,580.38,645.77,500,645.77Zm0-263.54A117.77,117.77,0,1,0,617.77,500,117.9,117.9,0,0,0,500,382.23Z"/><path d="M500,568.86A68.86,68.86,0,1,1,568.86,500,68.94,68.94,0,0,1,500,568.86Zm0-109.72A40.86,40.86,0,1,0,540.86,500,40.91,40.91,0,0,0,500,459.14Z"/></svg>
