<svg id="Capa_1" enable-background="new 0 0 512 512" height="512" viewBox="0 0 512 512" width="512" xmlns="http://www.w3.org/2000/svg"><g><path d="m0 271h106v105h-106z"/><path d="m0 136h106v105h-106z"/><path d="m271 271h105v105h-105z"/><path d="m406 271h106v105h-106z"/><path d="m406 136h106v105h-106z"/><path d="m271 136h105v105h-105z"/><path d="m136 136h105v105h-105z"/><path d="m136 271h105v105h-105z"/><path d="m271 406h105v106h-105z"/><path d="m497 0h-91v106h106v-91c0-8.291-6.709-15-15-15z"/><path d="m406 512h91c8.291 0 15-6.709 15-15v-91h-106z"/><path d="m15 512h91v-106h-106v91c0 8.291 6.709 15 15 15z"/><path d="m136 406h105v106h-105z"/><path d="m271 0h105v106h-105z"/><path d="m106 0h-91c-8.291 0-15 6.709-15 15v91h106z"/><path d="m136 0h105v106h-105z"/></g></svg>