<svg xmlns="http://www.w3.org/2000/svg" version="1.1" xmlns:xlink="http://www.w3.org/1999/xlink" width="512" height="512" x="0" y="0" viewBox="0 0 20 20" style="enable-background:new 0 0 512 512" xml:space="preserve" class=""><g><g fill="#000" fill-rule="evenodd" clip-rule="evenodd"><path d="M3 4.75A.75.75 0 0 1 3.75 4h12.5a.75.75 0 0 1 0 1.5H3.75A.75.75 0 0 1 3 4.75zM3 10a.75.75 0 0 1 .75-.75h12.5a.75.75 0 0 1 0 1.5H3.75A.75.75 0 0 1 3 10zM3 15.25a.75.75 0 0 1 .75-.75h12.5a.75.75 0 0 1 0 1.5H3.75a.75.75 0 0 1-.75-.75z" fill="#f7eeb1" opacity="1" data-original="#000000" class=""></path></g></g></svg>