<svg id="Layer_1" enable-background="new 0 0 1024 1024" viewBox="0 0 1024 1024" xmlns="http://www.w3.org/2000/svg"><g id="XMLID_11_"><path id="XMLID_242_" d="m504.9 807.3h277.3v60h-277.3z"/><path id="XMLID_244_" d="m504.9 154.7h429.1v60h-429.1z"/><path id="XMLID_257_" d="m428.7 131.9v263.9c0 21.2-17.2 38.4-38.4 38.4h-263.9c-21.2 0-38.4-17.2-38.4-38.4v-263.9c0-21.2 17.2-38.4 38.4-38.4h263.9c21.1 0 38.4 17.2 38.4 38.4z"/><path id="XMLID_260_" d="m504.9 313h277.3v60h-277.3z"/><path id="XMLID_274_" d="m428.7 626.2v263.9c0 21.2-17.2 38.4-38.4 38.4h-263.9c-21.2 0-38.4-17.2-38.4-38.4v-263.9c0-21.2 17.2-38.4 38.4-38.4h263.9c21.1 0 38.4 17.3 38.4 38.4z"/><path id="XMLID_275_" d="m504.9 649h429.1v60h-429.1z"/></g></svg>