<svg id="Layer_1" viewBox="0 0 512 512" xmlns="http://www.w3.org/2000/svg" data-name="Layer 1"><g fill-rule="evenodd"><path d="m83.734 16h92.746c3.04 0 5.492 2.458 5.492 5.492v370.758h246.294c3.04 0 5.494 2.464 5.494 5.499v92.757c0 3.036-2.454 5.494-5.494 5.494h-344.532c-3.04 0-5.494-2.458-5.494-5.494v-469.014c0-3.034 2.454-5.492 5.494-5.492z" fill="#ff8d41"/><path d="m405.76 403.243v20.987c0 3.034-2.507 5.492-5.494 5.492-3.039 0-5.492-2.458-5.492-5.492v-20.987h-23.2v36.516c0 3.036-2.454 5.5-5.494 5.5s-5.492-2.464-5.492-5.5v-36.516h-23.2v20.987c0 3.024-2.454 5.477-5.44 5.477-3.04 0-5.494-2.454-5.494-5.477v-20.987h-23.2v36.516c0 3.036-2.454 5.5-5.492 5.5s-5.494-2.464-5.494-5.5v-36.516h-23.147v20.987c0 3.034-2.452 5.492-5.492 5.492s-5.494-2.458-5.494-5.492v-20.987h-23.2v36.516c0 3.036-2.452 5.5-5.492 5.5s-5.494-2.464-5.494-5.5v-36.516h-23.146v20.987c0 3.034-2.454 5.492-5.494 5.492s-5.494-2.458-5.494-5.492v-20.987h-13.333c-3.04 0-5.494-2.46-5.494-5.494v-20.01h-19.626c-3.04 0-5.494-2.458-5.494-5.494s2.454-5.498 5.494-5.498h19.626v-23.169h-35.2c-3.04 0-5.494-2.458-5.494-5.492s2.454-5.494 5.494-5.494h35.2v-23.167h-19.626c-3.04 0-5.494-2.464-5.494-5.5s2.454-5.492 5.494-5.492h19.626v-23.168h-35.2c-3.04 0-5.494-2.458-5.494-5.492s2.454-5.5 5.494-5.5h35.2v-23.167h-19.626c-3.04 0-5.494-2.46-5.494-5.494s2.454-5.498 5.494-5.498h19.626v-23.162h-35.2c-3.04 0-5.494-2.464-5.494-5.499s2.454-5.499 5.494-5.499h35.2v-23.164h-19.626c-3.04 0-5.494-2.458-5.494-5.492s2.454-5.499 5.494-5.499h19.626v-23.168h-35.2c-3.04 0-5.494-2.458-5.494-5.499s2.454-5.494 5.494-5.494h35.2v-23.163h-19.626c-3.04 0-5.494-2.464-5.494-5.499s2.454-5.498 5.494-5.498h19.626v-23.162h-35.2c-3.04 0-5.494-2.464-5.494-5.499s2.454-5.494 5.494-5.494h35.2v-32.331h-81.76v458.015h333.548v-81.765h-17.014z" fill="#ffebd7"/><path d="m405.76 403.243v20.987c0 3.034-2.507 5.492-5.494 5.492-3.039 0-5.492-2.458-5.492-5.492v-20.987h-23.2v36.516c0 3.036-2.454 5.5-5.494 5.5s-5.492-2.464-5.492-5.5v-36.516h-23.2v20.987c0 3.024-2.454 5.477-5.44 5.477-3.04 0-5.494-2.454-5.494-5.477v-20.987h-23.2v36.516c0 3.036-2.454 5.5-5.492 5.5s-5.494-2.464-5.494-5.5v-36.516h-23.147v20.987c0 3.034-2.452 5.492-5.492 5.492s-5.494-2.458-5.494-5.492v-20.987h-23.2v36.516c0 3.036-2.452 5.5-5.492 5.5s-5.494-2.464-5.494-5.5v-36.516h-23.146v20.987c0 3.034-2.454 5.492-5.494 5.492s-5.494-2.458-5.494-5.492v-20.987h-13.333c-3.04 0-5.494-2.46-5.494-5.494v-20.01h-19.626c-3.04 0-5.494-2.458-5.494-5.494s2.454-5.498 5.494-5.498h19.626v-23.169h-35.2c-3.04 0-5.494-2.458-5.494-5.492s2.454-5.494 5.494-5.494h35.2v-23.167h-19.626c-3.04 0-5.494-2.464-5.494-5.5s2.454-5.492 5.494-5.492h19.626v-23.168h-35.2c-3.04 0-5.494-2.458-5.494-5.492s2.454-5.5 5.494-5.5h35.2v-23.167h-19.626c-3.04 0-5.494-2.46-5.494-5.494s2.454-5.498 5.494-5.498h19.626v-23.162h-35.2c-3.04 0-5.494-2.464-5.494-5.499s2.454-5.499 5.494-5.499h35.2v-23.164h-19.626c-3.04 0-5.494-2.458-5.494-5.492l.002-.146c-23.152 31.376-36.846 70.16-36.846 112.146 0 104.427 84.655 189.082 189.082 189.082 47.765 0 91.386-17.719 124.669-46.932v-18.203h-17.014zm-255.981-241.215c.501-.15 1.031-.231 1.581-.231h19.626v-22.478c-7.673 6.973-14.766 14.572-21.208 22.709z" fill="#fff"/><path d="m413.493 337.456-7.733 7.737v-246.217c0-3.034-2.507-5.498-5.494-5.498h-167.679l7.733-7.739c2.188-2.15 2.188-5.627 0-7.771-2.133-2.15-5.6-2.15-7.733 0l-17.067 17.077c-.213.175-.373.367-.534.57-.106.107-.159.225-.213.337h-.053c-.053.112-.107.228-.16.346l-.053.006c-.426.789-.694 1.701-.694 2.671s.267 1.882.694 2.671l.053.006c.053.118.107.234.16.346h.053c.054.118.107.23.213.336.16.204.32.396.534.572l17.067 17.077c2.133 2.15 5.6 2.15 7.733 0 2.188-2.144 2.188-5.621 0-7.771l-7.733-7.739h162.187v240.72l-7.787-7.737c-2.133-2.15-5.6-2.15-7.733 0-2.186 2.144-2.186 5.621 0 7.771l17.067 17.076c.16.181.373.352.586.508.106.085.213.165.32.239v.006c.106.07.213.144.319.207.8.443 1.707.694 2.72.694.96 0 1.867-.251 2.667-.694.107-.064.213-.138.32-.207v-.006c.107-.074.266-.154.373-.239.16-.156.373-.327.534-.508l17.067-17.076c2.186-2.15 2.186-5.627 0-7.771-2.135-2.15-5.601-2.15-7.734 0z" fill="#ff8d41"/></g></svg>