<svg xmlns="http://www.w3.org/2000/svg" version="1.1" xmlns:xlink="http://www.w3.org/1999/xlink" width="512" height="512" x="0" y="0" viewBox="0 0 512 512" style="enable-background:new 0 0 512 512" xml:space="preserve" class=""><g><linearGradient id="a" x1="11.707" x2="500.293" y1="256" y2="256" gradientUnits="userSpaceOnUse"><stop stop-opacity="1" stop-color="#523c1d" offset="0"></stop><stop stop-opacity="1" stop-color="#c5ad8c" offset="0"></stop><stop stop-opacity="1" stop-color="#523c1d" offset="1"></stop><stop stop-opacity="1" stop-color="#b67418" offset="1"></stop></linearGradient><path fill="url(#a)" d="M401.816 403.885v27.383H107.378V276.183h-14V459.87A52.264 52.264 0 0 0 145.532 512h218.129a52.264 52.264 0 0 0 52.159-52.13v-55.985c-2.325.171-4.649.256-7 .256s-4.708-.085-7.004-.256zm-126.058 74.751h-42.322a7 7 0 1 1 0-14h42.322a7 7 0 0 1 0 14zM107.378 80.76h294.438v112.651c2.3-.143 4.649-.228 7-.228s4.677.085 7 .228V52.13A52.264 52.264 0 0 0 363.661 0H145.532a52.264 52.264 0 0 0-52.158 52.13v91.418h14zm126.058-47.4h42.322a7 7 0 0 1 0 14h-42.322a7 7 0 0 1 0-14zm-6.151 264.051V262.18h39.062a26.99 26.99 0 0 0 26.929-26.93v-50.741a27.014 27.014 0 0 0-26.929-26.957H38.665a27.038 27.038 0 0 0-26.958 26.957v50.741a27.014 27.014 0 0 0 26.958 26.93h140.629zm-23.471-93.4a6.977 6.977 0 0 1 6.944-12.1l10.149 5.868v-11.71a7 7 0 1 1 14 0v11.707l10.148-5.868a6.978 6.978 0 0 1 6.945 12.1l-10.176 5.868L252 215.748a6.965 6.965 0 0 1-6.945 12.075l-10.148-5.867v11.736a7 7 0 0 1-14 0v-11.736l-10.149 5.867a6.965 6.965 0 1 1-6.944-12.075l10.148-5.868zM101.2 215.748a6.965 6.965 0 1 1-6.945 12.075l-10.148-5.867v11.736a7 7 0 0 1-14 0v-11.736l-10.148 5.867a6.965 6.965 0 1 1-6.945-12.075l10.149-5.868-10.149-5.868a6.977 6.977 0 0 1 6.945-12.1l10.141 5.864v-11.707a7 7 0 0 1 14 0v11.707l10.148-5.868a6.977 6.977 0 1 1 6.945 12.1L91.05 209.88zm68.458 12.075-10.149-5.867v11.736a7 7 0 0 1-14 0v-11.736l-10.148 5.867a6.965 6.965 0 1 1-6.945-12.075l10.148-5.868-10.148-5.868a6.977 6.977 0 1 1 6.945-12.1l10.148 5.868v-11.711a7 7 0 1 1 14 0v11.707l10.149-5.868a6.977 6.977 0 0 1 6.945 12.1l-10.177 5.868 10.177 5.868a6.965 6.965 0 1 1-6.945 12.075zm239.162-20.664a91.489 91.489 0 1 0 91.475 91.5 91.5 91.5 0 0 0-91.477-91.5zm0 159.167a67.678 67.678 0 1 1 67.664-67.664 67.681 67.681 0 0 1-67.666 67.664zm30.274-50.174a6.965 6.965 0 0 1-9.524 2.551l-23.812-13.748a7.028 7.028 0 0 1-3.94-6.293v-47.311a7 7 0 0 1 14 0v43.286l20.723 11.963a6.992 6.992 0 0 1 2.551 9.552z" opacity="1" data-original="url(#a)" class=""></path></g></svg>