<svg id="Layer_1" enable-background="new 0 0 512 512" viewBox="0 0 512 512" xmlns="http://www.w3.org/2000/svg"><path d="m488.582 334.12c-3.268-2.317-7.745-1.862-10.477 1.067-32.145 34.444-73.47 61.664-119.508 78.718-74.604 27.637-161.509 25.236-228.646-5.978l6.485-20.795c.757-2.43.313-5.074-1.194-7.124-1.508-2.048-3.9-3.258-6.443-3.258-.001 0-.002 0-.003 0-40.765.002-76.103-6.381-96.91-17.55-2.431-1.305-5.361-1.265-7.756.104-2.395 1.37-3.914 3.877-4.021 6.633-1.899 48.763 39.961 106.347 70.291 131.661 2.053 1.713 4.826 2.288 7.387 1.532 2.563-.755 4.581-2.741 5.377-5.293l4.63-14.85c33.084 14.479 68.058 22.753 104.102 24.615 5.151.267 10.293.399 15.426.399 35.198 0 69.891-6.252 103.336-18.641 69.183-25.627 126.141-75.702 160.382-141.002 1.859-3.545.809-7.921-2.458-10.238zm-163.484 136.238c-71.849 26.616-149.56 23.19-218.815-9.64-1.083-.514-2.255-.771-3.427-.771-1.093 0-2.187.224-3.211.673-2.122.93-3.736 2.733-4.427 4.946l-3.588 11.508c-23.178-22.895-50.509-62.615-54.96-98.135 26.116 10.146 58.491 13.039 81.299 13.665l-5.348 17.146c-1.167 3.743.551 7.781 4.058 9.536 35.976 18.005 78.095 28.301 121.803 29.775 42.729 1.44 86.188-5.527 125.674-20.153 28.538-10.571 55.363-24.874 79.515-42.274-31.289 37.519-72.004 66.474-118.573 83.724zm-231.809-167.37 158.652 93.364c1.252.737 2.655 1.105 4.058 1.105s2.806-.368 4.058-1.105l158.653-93.364c2.442-1.438 3.942-4.061 3.942-6.895v-186.73c0-2.834-1.5-5.457-3.942-6.895l-158.654-93.365c-2.504-1.475-5.611-1.475-8.115 0l-158.652 93.366c-2.442 1.438-3.942 4.061-3.942 6.895v186.73c-.001 2.833 1.499 5.457 3.942 6.894zm12.057-179.635 142.652 83.949v168.165l-142.652-83.948zm206.975 36.948-142.881-84.083 30.237-17.794 142.88 84.083zm38.009-3.803v54.967l-30.009 17.659-.001-54.965zm-53.783 13.085-40.549 23.863-142.879-84.083 40.548-23.862zm-32.548 205.885v-168.165l40.321-23.729.001 59.54c0 2.87 1.537 5.521 4.029 6.944 1.23.704 2.601 1.056 3.971 1.056 1.403 0 2.806-.369 4.058-1.105l46.009-27.075c2.442-1.438 3.942-4.061 3.942-6.895v-68.956l40.322-23.729v168.166zm-8-350.188 142.88 84.083-40.549 23.863-142.88-84.084z"/></svg>