<svg id="Layer_1" enable-background="new 0 0 24 24" viewBox="0 0 24 24" xmlns="http://www.w3.org/2000/svg"><g><path d="m12 18.1c-5.2 0-9.3-5.5-9.5-5.7s-.2-.5 0-.7 4.2-5.7 9.5-5.7 9.3 5.5 9.5 5.7.2.5 0 .7-4.3 5.7-9.5 5.7zm-8.2-6.1c1 1.2 4.3 4.9 8.2 4.9s7.3-3.7 8.2-4.9c-1-1.2-4.3-4.9-8.2-4.9s-7.3 3.7-8.2 4.9z" fill="rgb(0,0,0)"/></g><g><path d="m12 15.1c-1.7 0-3.1-1.4-3.1-3.1s1.4-3.1 3.1-3.1 3.1 1.4 3.1 3.1-1.4 3.1-3.1 3.1zm0-5c-1.1 0-1.9.8-1.9 1.9s.8 1.9 1.9 1.9 1.9-.8 1.9-1.9-.8-1.9-1.9-1.9z" fill="rgb(0,0,0)"/></g><g><path d="m6 22.6h-4c-.3 0-.6-.3-.6-.6v-4c0-.3.3-.6.6-.6s.6.3.6.6v3.4h3.4c.3 0 .6.3.6.6s-.3.6-.6.6z" fill="rgb(0,0,0)"/></g><g><path d="m22 6.6c-.3 0-.6-.3-.6-.6v-3.4h-3.4c-.3 0-.6-.3-.6-.6s.3-.6.6-.6h4c.3 0 .6.3.6.6v4c0 .3-.3.6-.6.6z" fill="rgb(0,0,0)"/></g><g><path d="m2 6.6c-.3 0-.6-.3-.6-.6v-4c0-.3.3-.6.6-.6h4c.3 0 .6.3.6.6s-.3.6-.6.6h-3.4v3.4c0 .3-.3.6-.6.6z" fill="rgb(0,0,0)"/></g><g><path d="m22 22.6h-4c-.3 0-.6-.3-.6-.6s.3-.6.6-.6h3.4v-3.4c0-.3.3-.6.6-.6s.6.3.6.6v4c0 .3-.3.6-.6.6z" fill="rgb(0,0,0)"/></g></svg>