<svg xmlns="http://www.w3.org/2000/svg" version="1.1" xmlns:xlink="http://www.w3.org/1999/xlink" width="512" height="512" x="0" y="0" viewBox="0 0 512 512" style="enable-background:new 0 0 512 512" xml:space="preserve" class=""><g><path d="M457.021 76.013 259.829 9.627a12.005 12.005 0 0 0-7.658 0L54.979 76.013a12 12 0 0 0-8.171 11.373v164.825c0 122.08 87.022 227.462 206.92 250.572a11.967 11.967 0 0 0 4.542 0c119.897-23.11 206.92-128.492 206.92-250.572V87.386a11.996 11.996 0 0 0-8.169-11.373zm-15.83 176.198c0 109.829-77.738 204.737-185.191 226.557C148.547 456.948 70.809 362.04 70.809 252.211V96.008L256 33.662l185.191 62.346zm-207.466 47.352 126.273-120.9c4.787-4.583 12.383-4.418 16.967.369 4.583 4.787 4.418 12.383-.369 16.967L242.194 324.682a11.97 11.97 0 0 1-8.3 3.332 11.972 11.972 0 0 1-8.116-3.161l-74.957-68.838c-4.881-4.483-5.204-12.074-.722-16.956 4.483-4.881 12.075-5.203 16.956-.722z" fill="#ffffff" opacity="1" data-original="#000000" class=""></path></g></svg>