<svg id="Layer_1" enable-background="new 0 0 128 128" viewBox="0 0 128 128" xmlns="http://www.w3.org/2000/svg"><g><circle cx="64" cy="64" fill="#303c63" opacity=".1" r="62.5"/></g><path d="m71 110h44" style="fill:none;stroke:#303c63;stroke-width:2;stroke-linecap:round;stroke-linejoin:round;stroke-miterlimit:10"/><path d="m78 97v13" style="fill:none;stroke:#303c63;stroke-width:2;stroke-linecap:round;stroke-linejoin:round;stroke-miterlimit:10"/><path d="m96.1 41.6c1.3-2.8 1.8-5.9 0-6.7s-8.5-2.7-11.5-3.9c-2.9-1.3-1.9-4.2-2.1-5.8-.1-1.5-2.2-2-4.7-2s-4.7.4-4.8 2c-.1 1.5.8 4.5-2.1 5.8s-9.7 3.1-11.5 3.9-1.3 3.9 0 6.7 4.8 12.1 5.6 20.1-4.8 12.6-5.3 22.5c-.6 9.8.1 15 4.4 16.4 7.6 2.5 19.1 2.5 27.5 0 4.7-1.4 4.8-6.6 4.3-16.4-.6-9.8-6.2-14.5-5.3-22.5.8-8 4.3-17.2 5.5-20.1z" fill="#fff"/><path d="m91.6 100.6c4.7-1.4 4.8-6.6 4.3-16.4-.6-9.8-6.2-14.5-5.3-22.5.8-8 4.4-17.3 5.6-20.1 1.3-2.8 1.8-5.9 0-6.7s-8.5-2.7-11.5-3.9c-2.9-1.3-1.9-4.2-2.1-5.8-.1-1.5-2.2-2-4.7-2s-4.7.4-4.8 2c-.1 1.5.8 4.5-2.1 5.8-2.6 1.1-8 2.6-10.6 3.6.6 2 2.4 7.8 4.1 11.3 2.1 4.4 5.8 9 4.9 19.1s-4.6 13.3-4.6 21.5c0 3.9-.4 9.7.8 14.6 7.6 2 18.1 1.8 26-.5z" fill="#b7b7b7"/><path d="m84.7 31c-2.9-1.3-1.9-4.2-2.1-5.8-.1-1.5-2.2-2-4.7-2s-4.7.4-4.8 2c-.1 1.5.8 4.5-2.1 5.8-2.6 1.1-8.1 2.6-10.6 3.6.6 2.9 2.8 8.5 4.1 11.3 1.7 3.6 2.2 4.5 13.3 4.5s11.8-.1 13.3-4.6c.9-2.7 3-7.6 4.5-11-2.3-1-8.2-2.7-10.9-3.8z" fill="#e2e2e2"/><path d="m82.6 25.3c-.1-1.6-2.2-2-4.7-2s-4.7.4-4.8 2v.2c.6 1.1 2.5 1.9 4.8 1.9 2.3-.1 4.2-1 4.7-2.1z" fill="#fff"/><path d="m96.1 41.6c1.3-2.8 1.8-5.9 0-6.7s-8.5-2.7-11.5-3.9c-2.9-1.3-1.9-4.2-2.1-5.8-.1-1.5-2.2-2-4.7-2s-4.7.4-4.8 2c-.1 1.5.8 4.5-2.1 5.8s-9.7 3.1-11.5 3.9-1.3 3.9 0 6.7 4.8 12.1 5.6 20.1-4.8 12.6-5.3 22.5c-.6 9.8.1 15 4.4 16.4 7.6 2.5 19.1 2.5 27.5 0 4.7-1.4 4.8-6.6 4.3-16.4-.6-9.8-6.2-14.5-5.3-22.5.8-8 4.3-17.2 5.5-20.1z" style="fill:none;stroke:#303c63;stroke-width:2;stroke-linecap:round;stroke-linejoin:round;stroke-miterlimit:10"/><path d="m78 25v-7" style="fill:none;stroke:#303c63;stroke-width:2;stroke-linecap:round;stroke-linejoin:round;stroke-miterlimit:10"/><path d="m60 63h-12" style="fill:none;stroke:#303c63;stroke-width:2;stroke-linecap:round;stroke-linejoin:round;stroke-miterlimit:10"/><path d="m60 63-5.5-5.6" style="fill:none;stroke:#303c63;stroke-width:2;stroke-linecap:round;stroke-linejoin:round;stroke-miterlimit:10"/><path d="m60 63-5.5 5.6" style="fill:none;stroke:#303c63;stroke-width:2;stroke-linecap:round;stroke-linejoin:round;stroke-miterlimit:10"/><path d="m95 63h12" style="fill:none;stroke:#303c63;stroke-width:2;stroke-linecap:round;stroke-linejoin:round;stroke-miterlimit:10"/><path d="m95 63 5.5 5.6" style="fill:none;stroke:#303c63;stroke-width:2;stroke-linecap:round;stroke-linejoin:round;stroke-miterlimit:10"/><path d="m95 63 5.5-5.6" style="fill:none;stroke:#303c63;stroke-width:2;stroke-linecap:round;stroke-linejoin:round;stroke-miterlimit:10"/><path d="m65 110h-52" style="fill:none;stroke:#303c63;stroke-width:2;stroke-linecap:round;stroke-linejoin:round;stroke-miterlimit:10"/><g><g fill="none" stroke="#f26a63" stroke-linecap="round" stroke-linejoin="round" stroke-width="2"><path d="m65.1 63.8c.6.2 1.3.4 1.9.6"/><path d="m71.6 65.4c4.9.8 9.8.6 14.6-.4" stroke-dasharray="3.79 4.738"/><path d="m88.5 64.4c.6-.2 1.3-.4 1.9-.6"/></g></g><circle cx="78" cy="18" fill="#303c63" r="2.9"/><path d="m42 108c0 1.1-.9 2-2 2h-9c-1.1 0-2-.9-2-2v-83c0-1.1.9-2 2-2h9c1.1 0 2 .9 2 2z" fill="#f1dd6f"/><g style="fill:none;stroke:#303c63;stroke-width:2;stroke-linecap:round;stroke-linejoin:round;stroke-miterlimit:10"><path d="m42 108c0 1.1-.9 2-2 2h-9c-1.1 0-2-.9-2-2v-83c0-1.1.9-2 2-2h9c1.1 0 2 .9 2 2z"/><path d="m42 99h-7"/><path d="m42 92h-4"/><path d="m42 85h-4"/><path d="m42 78h-4"/><path d="m42 71h-7"/><path d="m42 64h-4"/><path d="m42 57h-4"/><path d="m42 50h-4"/><path d="m42 43h-7"/><path d="m42 35h-4"/></g></svg>