<svg xmlns="http://www.w3.org/2000/svg" version="1.1" xmlns:xlink="http://www.w3.org/1999/xlink" width="30" height="30" x="0" y="0" viewBox="0 0 100 100" style="enable-background:new 0 0 512 512" xml:space="preserve" class=""><g><path d="M75.33 36.04h-8.71c-.55-6.86-6.29-12.27-13.29-12.27s-12.74 5.41-13.29 12.27h-8.71c-2.48 0-4.5 2.02-4.5 4.5v44c0 2.48 2.02 4.5 4.5 4.5h44c2.48 0 4.5-2.02 4.5-4.5v-44c0-2.48-2.02-4.5-4.5-4.5zm-22-9.27c5.34 0 9.75 4.07 10.28 9.27H43.04c.54-5.2 4.95-9.27 10.29-9.27zm23.5 57.77c0 .83-.67 1.5-1.5 1.5h-44c-.83 0-1.5-.67-1.5-1.5v-44c0-.83.67-1.5 1.5-1.5h44c.83 0 1.5.67 1.5 1.5z" fill="#f5eaac" opacity="1" data-original="#000000" class=""></path><path d="M65.17 48.56c-.83 0-1.5.67-1.5 1.5 0 5.7-4.64 10.34-10.34 10.34s-10.34-4.64-10.34-10.34c0-.83-.67-1.5-1.5-1.5s-1.5.67-1.5 1.5c0 7.36 5.98 13.34 13.34 13.34s13.34-5.98 13.34-13.34c0-.83-.67-1.5-1.5-1.5z" fill="#f5eaac" opacity="1" data-original="#000000" class=""></path></g></svg>