<svg fill="none" height="24" viewBox="0 0 24 24" width="24" xmlns="http://www.w3.org/2000/svg"><g fill="rgb(0,0,0)"><path d="m19 15.25h-14c-.19891 0-.38968.079-.53033.2197-.14065.1406-.21967.3314-.21967.5303s.07902.3897.21967.5303c.14065.1407.33142.2197.53033.2197h14c.1989 0 .3897-.079.5303-.2197.1407-.1406.2197-.3314.2197-.5303s-.079-.3897-.2197-.5303c-.1406-.1407-.3314-.2197-.5303-.2197z"/><path d="m5 12.75h8c.1989 0 .3897-.079.5303-.2197.1407-.1406.2197-.3314.2197-.5303s-.079-.3897-.2197-.5303c-.1406-.1407-.3314-.2197-.5303-.2197h-8c-.19891 0-.38968.079-.53033.2197-.14065.1406-.21967.3314-.21967.5303s.07902.3897.21967.5303c.14065.1407.33142.2197.53033.2197z"/><path d="m5 8.75h8c.1989 0 .3897-.07902.5303-.21967.1407-.14065.2197-.33142.2197-.53033s-.079-.38968-.2197-.53033c-.1406-.14065-.3314-.21967-.5303-.21967h-8c-.19891 0-.38968.07902-.53033.21967s-.21967.33142-.21967.53033.07902.38968.21967.53033.33142.21967.53033.21967z"/><path d="m16.47 13.53c.0694.0678.1507.1221.24.16.0915.0396.1902.0601.29.0601s.1985-.0205.29-.0601c.0893-.0379.1706-.0922.24-.16l1.8-1.8c.1325-.1422.2046-.3302.2012-.5245-.0035-.1943-.0822-.3797-.2196-.5171s-.3228-.2161-.5171-.2196c-.1943-.0034-.3823.0687-.5245.2012l-.52.52v-3.19c0-.19891-.079-.38968-.2197-.53033-.1406-.14065-.3314-.21967-.5303-.21967s-.3897.07902-.5303.21967c-.1407.14065-.2197.33142-.2197.53033v3.19l-.52-.52c-.0687-.0737-.1515-.1328-.2435-.1738s-.1913-.063-.292-.0648-.2007.0168-.2941.0545-.1782.0938-.2494.1651c-.0713.0712-.1274.156-.1651.2494s-.0563.1934-.0545.2941.0238.2.0648.292.1001.1748.1738.2435z"/></g></svg>