<svg xmlns="http://www.w3.org/2000/svg" version="1.1" xmlns:xlink="http://www.w3.org/1999/xlink" width="512" height="512" x="0" y="0" viewBox="0 0 60 60" style="enable-background:new 0 0 512 512" xml:space="preserve" class=""><g><path d="M44 19v-5a14 14 0 0 0-28 0v5a8.009 8.009 0 0 0-8 8v11a22 22 0 0 0 21.991 22q.4 0 .8-.015C42.488 59.573 52 49.485 52 37.5V27a8.009 8.009 0 0 0-8-8Zm-26-5a12 12 0 0 1 24 0v5h-2v-5a10 10 0 0 0-20 0v5h-2Zm20 5H22v-5a8 8 0 0 1 16 0Zm12 18.5c0 10.923-8.646 20.114-19.274 20.489A20 20 0 0 1 10 38V27a6.006 6.006 0 0 1 6-6h28a6.006 6.006 0 0 1 6 6Z" fill="#ffffff" opacity="1" data-original="#000000"></path><path d="M30 32a3.627 3.627 0 0 1 2.293.907 1 1 0 0 0 1.414-1.414A5.624 5.624 0 0 0 30 30a4 4 0 0 0 0 8 2 2 0 0 1 0 4 3.631 3.631 0 0 1-2.3-.912 1 1 0 0 0-1.409 1.419A5.624 5.624 0 0 0 30 44a4 4 0 0 0 0-8 2 2 0 0 1 0-4ZM20 32a3.627 3.627 0 0 1 2.293.907 1 1 0 0 0 1.414-1.414A5.624 5.624 0 0 0 20 30a4 4 0 0 0 0 8 2 2 0 0 1 0 4 3.631 3.631 0 0 1-2.3-.912 1 1 0 0 0-1.409 1.419A5.624 5.624 0 0 0 20 44a4 4 0 0 0 0-8 2 2 0 0 1 0-4ZM43 42h-5V31a1 1 0 0 0-2 0v12a1 1 0 0 0 1 1h6a1 1 0 0 0 0-2Z" fill="#ffffff" opacity="1" data-original="#000000"></path></g></svg>