<svg xmlns="http://www.w3.org/2000/svg" version="1.1" xmlns:xlink="http://www.w3.org/1999/xlink" width="512" height="512" x="0" y="0" viewBox="0 0 512 512" style="enable-background:new 0 0 512 512" xml:space="preserve" class=""><g><path d="M323.3 412.8V279.3c.2-10-8.5-18.8-18.6-18.6H100.3c-10.1-.2-18.8 8.6-18.7 18.6v98.4l-25 10.7v-5.6c0-7.1-5.8-12.9-12.9-12.9H14.1c-7.1 0-12.9 5.8-12.9 12.9V480c0 7.1 5.8 12.9 12.9 12.9h29.6c8.1.1 13.8-7.3 12.9-15.1l110.2 29.7c14 3.8 29.1 2.9 42.4-2.7L329 455c22.7-9.4 17.4-38.6-5.7-42.2zM45.5 479.9c0 1-.8 1.8-1.8 1.8H14.1c-1 0-1.8-.8-1.8-1.8v-97.2c0-1 .8-1.8 1.8-1.8h29.6c1 0 1.8.8 1.8 1.8zm136.8-208.2h40.3v61.5h-40.3zm-89.7 7.6c-.1-4.1 3.5-7.6 7.6-7.6h71v67.1c0 3.1 2.5 5.5 5.5 5.5H228c3.1 0 5.5-2.5 5.5-5.5v-67.1h71c4.1-.1 7.6 3.5 7.6 7.6v133.4c-1.2.2-115.6 24.7-116.8 25-4 1-8.3 1-12.3 0-.6-.1-1.1-.2-1.7-.4L121.1 418c9.2-6.6 29.5-6.1 40.4-7.9 23.1-1.8 34-34.6 6.2-38.8l-38.6-3.3c-12.6-1.8-25.2-1.3-36.6 4.8v-93.5zm232.2 165.5L205 494.5c-11 4.6-23.6 5.4-35.3 2.2L56.5 466.2v-65.9l45.4-19.4c7.6-3.5 16.9-2.8 25.1-1.9l39.8 3.4c4.2.4 7.6 4.1 5.8 8.4-1.9 4.7-7.5 7.8-12.3 8.3-16.8 1.8-36.2 1.2-49.8 13-5.3 4.5-3 13.5 3.6 15.3l63.9 20.3c6.5 2.1 13.3 2.1 19.9.6l115.4-24.7c15.2-3.4 28.6 12.7 11.5 21.2zM497.9 19.2h-29.6c-8.1-.1-13.8 7.3-12.9 15.1L345.3 4.6C331.1.8 316 1.8 302.9 7.3L263 23.8c-21.3-11.8-44.4-20.1-70.9-21-2.2-.2-4.3 1.2-5.2 3.2l-28.3 62.2c-5.1 2.4-16 2.6-16.5 9.7v148.2c0 1.8.9 3.6 2.4 4.6s3.5 1.2 5.2.5c45.4-18.7 90-7.8 137.2 3.8 48.7 12.1 98.9 23.6 146.9 1 1.9-.9 3.2-2.9 3.2-5v-99.4l18.4-7.8v5.6c0 7.1 5.8 12.9 12.9 12.9h29.6c7.1 0 12.9-5.8 12.9-12.9V32.1c0-7.1-5.8-12.9-12.9-12.9zM195.4 14c54 3.4 93.3 39.9 134 71.1-5-.9-10-2-15.1-3.2-25.9-19.7-52.6-40-84.7-53.6-2.7-1.2-5.9.1-7.2 2.8-4 8.8-15.1 13.9-26.4 12.1-2.5-.4-4.8.9-5.9 3.2l-7.6 16.8c-3.4.4-6.8 1.1-10.2 1.6zm92 61.5c-30.2-7.4-61-14.6-92.2-13.4l3.4-7.5c12.7.7 24.6-4.8 31.2-14.2 20.9 9.5 39.7 21.9 57.6 35.1zM426 227.4c-88.7 37.9-182.1-42-272.9-9.3V81.7c70-26 140 15.2 210.2 18.9-6.4.4-13 .9-19.1 3-2.6 1.1-5.3 1.5-8 .8-48.9-8.8-94.8-24.8-146.1-23.7-3 .1-5.4 2.5-5.4 5.5 0 9.7-8 18.9-19 22-2.4.7-4 2.8-4 5.3v62.7c-.1 3.5 3.6 6.4 7 5.3 10.2-2.4 15.6 4.5 16 13.5-.1 3 2.7 5.7 5.7 5.5 33.5-1 66.2 6.6 97.8 13.8 30.4 7 61.8 14.2 94.6 14.2 4.5.1 11.3.5 11.4-5.6 0-9.6 8-18.8 19-21.9 2.4-.7 4-2.8 4-5.3v-55.6l8.7-3.7v91zM336.7 76.7l40.5 12.9c-8.1.2-16.3-.2-24.5-1-5.4-3.8-10.7-7.8-16-11.9zm7.5 63.9c10.5.3 52.4 6.1 62.1 3.2v47.8c-11.7 4.7-20.3 14.6-22.5 25.7-65.2 0-122.9-28.4-188.5-28.1-2-10.8-11.5-19.5-22.5-19.4v-52.5c11.7-4.7 20.3-14.6 22.5-25.8 46.8-.1 89.8 14.7 135.1 22.8-7.2 11.2.5 25.6 13.8 26.3zm111.3-28.9-26.1 11.1c-11.6 4.5-23.1 12.1-36 10.8l-48.2-4.1c-1.9-.2-3.7-.9-4.9-2-5.5-6.7 5.1-14.2 11.4-14.8l25.8-2.8c9.4-1.2 27.1-6.6 26.8-17.6-.6-3.6-2.8-6.7-6.5-7.8L334 64.3c-4.9-1.6-10.1-2.1-15.1-1.5-3.3.4-15.5-12-18.5-14.2-8.3-6.2-16.7-12.1-25.4-17.7l32.2-13.3c10.8-4.5 23.7-5.3 35.3-2.2l113.1 30.5v65.8zm44.2 17.6c0 1-.8 1.8-1.8 1.8h-29.6c-1 0-1.8-.8-1.8-1.8V32.1c0-1 .8-1.8 1.8-1.8h29.6c1 0 1.8.8 1.8 1.8zm-208.8-6.9c-17.4-4.8-34 7.2-33.6 25.4-.1 19.7 18.2 39.5 38.7 39.7 41.2-3 27.9-57.7-5.1-65.1zm14.4 51.1c-19.8 13.3-49.4-21.9-31.4-38.2 20-13.2 49.3 22 31.4 38.2z" fill="#72561e" opacity="1" data-original="#000000" class=""></path></g></svg>